<svg id="Layer_1" data-name="Layer 1" xmlns="http://www.w3.org/2000/svg" viewBox="0 0 607.46 409.01"><defs><style>.cls-1{fill:#f9f9f9;}.cls-2{fill:#f3f3f3;}.cls-3{fill:#e6e6e6;}.cls-4{fill:#eee;}.cls-5{fill:#c4c4c4;}.cls-6{fill:#e7e7e7;}.cls-7{fill:#e2e2e2;}.cls-8{fill:#ebebeb;}.cls-9{fill:#e9e9e9;}.cls-10{fill:#dadada;}.cls-11{fill:#ddd;}.cls-12{fill:#bebebe;}.cls-13{fill:#e4e4e4;}.cls-14{fill:#c6c6c6;}.cls-15{fill:#d6d6d6;}.cls-16{fill:#f0f0f0;}.cls-17{fill:#dfdfdf;}.cls-18{fill:#f5f5f5;}.cls-19{fill:#c9c9c9;}.cls-20{fill:#e0e0e0;}.cls-21{fill:#d0d0d0;}.cls-22{fill:#e5e5e5;}.cls-23{fill:#efefef;}.cls-24{fill:#ababab;}.cls-25{fill:#b7b7b7;}.cls-26{fill:#b6b6b6;}.cls-27{fill:#717171;}.cls-28{fill:#bababa;}.cls-29{fill:#d8d8d8;}.cls-30{fill:#7d7d7d;}.cls-31{fill:#bfbfbf;}.cls-32{fill:#c1c1c1;}.cls-33{fill:#dbdbdb;}.cls-34{fill:#b2b2b2;}.cls-35{fill:#c5c5c5;}.cls-36{fill:#bdbdbd;}.cls-37{fill:#3e3e3e;}.cls-38{fill:#9b9b9b;}.cls-39{fill:#b8b8b8;}.cls-40{fill:#5c5c5c;}.cls-41{fill:#686868;}.cls-42{fill:#989898;}.cls-43{fill:#969696;}.cls-44{fill:#6c6c6c;}.cls-45{fill:#a5a5a5;}.cls-46{fill:#6e6e6e;}.cls-47{fill:#a1a1a1;}.cls-48{fill:#747474;}.cls-49{fill:#a9a9a9;}.cls-50{fill:gray;}.cls-51{fill:#787878;}.cls-52{fill:#575757;}.cls-53{fill:#858585;}.cls-54{fill:#929292;}.cls-55{fill:#434343;}.cls-56{fill:#cecece;}.cls-57{fill:#3b3b3b;}.cls-58{fill:#090909;}.cls-59{fill:#b3b3b3;}.cls-60{fill:#070707;}.cls-61{fill:#303030;}.cls-62{fill:#e3e3e3;}.cls-63{fill:#eaeaea;}.cls-64{fill:#b9b9b9;}.cls-65{fill:#9f9f9f;}.cls-66{fill:#464646;}.cls-67{fill:#010101;}.cls-68{fill:#fbfbfb;}.cls-69{fill:#b4b4b4;}.cls-70{fill:#9a9a9a;}.cls-71{fill:#5e5e5e;}.cls-72{fill:#a3a3a3;}.cls-73{fill:#a0a0a0;}.cls-74{fill:#878787;}.cls-75{fill:#888;}.cls-76{fill:#767676;}.cls-77{fill:#8d8d8d;}.cls-78{fill:#4f4f4f;}.cls-79{fill:#4b4b4b;}.cls-80{fill:#141414;}.cls-81{fill:#1b1b1b;}.cls-82{fill:#838383;}.cls-83{fill:#949494;}.cls-84{fill:#848484;}.cls-85{fill:#aeaeae;}.cls-86{fill:#131313;}.cls-87{fill:#0f0f0f;}.cls-88{fill:#d7d7d7;}.cls-89{fill:#d3d3d3;}.cls-90{fill:#ccc;}.cls-91{fill:#f7f7f7;}.cls-92{fill:#f2f2f2;}.cls-93{fill:#ececec;}.cls-94{fill:#1e1e1e;}.cls-95{fill:#f6f6f6;}.cls-96{fill:#101010;}.cls-97{fill:#020202;}.cls-98{fill:#2c2c2c;}.cls-99{fill:#3c3c3c;}.cls-100{fill:#121212;}.cls-101{fill:#111;}.cls-102{fill:#dedede;}.cls-103{fill:#8f8f8f;}.cls-104{fill:#e1e1e1;}.cls-105{fill:#4d4d4d;}.cls-106{fill:#5f5f5f;}.cls-107{fill:#323232;}.cls-108{fill:#6b6b6b;}.cls-109{fill:#a4a4a4;}.cls-110{fill:#a8a8a8;}.cls-111{fill:#b1b1b1;}.cls-112{fill:#777;}.cls-113{fill:#545454;}.cls-114{fill:#939393;}.cls-115{fill:#7a7a7a;}.cls-116{fill:#7f7f7f;}.cls-117{fill:#595959;}.cls-118{fill:#7b7b7b;}.cls-119{fill:#6a6a6a;}.cls-120{fill:#c3c3c3;}.cls-121{fill:#cfcfcf;}.cls-122{fill:#6f6f6f;}.cls-123{fill:#3d3d3d;}.cls-124{fill:#252525;}.cls-125{fill:#5b5b5b;}.cls-126{fill:#cacaca;}.cls-127{fill:#363636;}.cls-128{fill:#dcdcdc;}.cls-129{fill:#898989;}.cls-130{fill:#1d1d1d;}.cls-131{fill:#626262;}.cls-132{fill:#8e8e8e;}.cls-133{fill:#727272;}.cls-134{fill:#8c8c8c;}.cls-135{fill:silver;}</style></defs><title>background</title><path class="cls-1" d="M451.35,536.44V169.05c3.37-1.82,5.12.27,6.27,2.92,2.16,4.94,4.64,9.81,5.05,15.34.14,1.8-.22,4.19,1.18,5.15,6.54,4.51,10.52,11.63,16.86,16.26a9.64,9.64,0,0,0,7.12,1.46c2.41-.32,4-1.18,2-3.94-2.58-3.72-1.21-6.79,1.74-9.55a14,14,0,0,0,2.49-3.18c4.64-8.1,4.65-8.16,13.66-6.82,3.11.46,6.29.48,9.32,1.33,5.87,1.66,7.43,5.38,4.2,10.61-2.2,3.54-2.93,7-1.15,10.79,2.33.48,2.42-1.59,3.25-2.72.53-.72.86-1.6,1.44-2.29,2.61-3.11,17.56-4.63,20.68-2.07a5,5,0,0,1,1.53,6.59c-4.53,9.7-5,20.2-4.29,30.46.48,6.54,3.86,12.8,3,19.77-.34,2.84,4,2.67,4.46,5.42.28,3.78,1.09,7.47,1.51,11.23.11,10.59,0,21.17.11,31.75,1,8.41.5,16.85.57,25.27-1.24,5.64-6.92,6.64-10.43,9.89-2.42,2.24-5.7,3.57-6.85,7-10.48,10.57-16,24.67-25.17,36.14-1,9.65,2.65,19.11,1.13,28.77-2,5.39.47,11.38-2.09,16.71-5,6.21-5.37,13.81-6.54,21.25-1.74,11-4.06,21.59-10.72,31.18-3.77,5.44-7.47,11.8-7.53,19.15a10.12,10.12,0,0,1-4.09,8.15,24.19,24.19,0,0,0-6.12,7.07c-1.48,2.59-3.61,4.8-6.79,5-5.62.31-8.47,2.91-9,8.72C457.92,535.69,455.8,538.21,451.35,536.44Z" transform="translate(-450.5 -147.26)"/><path class="cls-2" d="M548.43,264c-7,1.05-5.77-4.87-5.76-8.08,0-4.89-.13-9.15-3.21-13.32-2.68-3.63-1.25-8.7-.6-12.32,1.25-7,1.4-14.38,4.74-20.92,2.41-4.71-.72-4.72-3.89-4.63-.4,0-.79.63-1.17.61-7.66-.3-13.57,1.82-15.87,10.24-.47,1.72-3.18,2.49-5.33,1.54s-1.83-2.85-1.61-4.68c.68-5.69-2.84-12,3.6-16.87,2.23-1.68-.64-3.67-2.56-4-5-1-10.16-1.58-15.25-2.3-2.1-.29-2.68,1.18-3,2.83-.44,2-.91,4.1-2.53,5.41-3.92,3.17-7,6,.83,7.89a2.24,2.24,0,0,1,1.61,2.66c-.62,2.65-2.68,4.13-5,5.09-6.39,2.66-15.86.17-20-5.73-3-4.32-5.59-8.51-11.35-9.72-3.46-.73-2.44-4.35-2.62-6.92-.54-8-2.71-15.45-8.1-21.64,0-6.1.2-12.21-.09-18.3-.14-2.93.56-3.55,3.46-3.48,10.55.22,21.12.09,31.68.09H696.69a4.14,4.14,0,0,1,.44.5c1.21,1.85.71,4.5-.79,4.65-8.17.81-4.68,17.38-17,12.39-4.3-1.74-9.19-1-12.1-6.51-2-3.8-7.14-2.43-10.25-.34s-5.52,5.45-4.39,9.76c.61,2.35,2.74,3.06,4.86,2.51,4.08-1,8.56-1.37,11.83-4.34,1.89-1.71,4.09-2.58,6.1-2,5.29,1.56,10.51.82,15.81.64,6-.19,8.33,2,8.59,7.9.36,8,1.48,16.26-3.42,23.62-1.42,2.13-2.72,4.38-5.49,4.41-7.24.07-13.05,3.91-19.19,6.93a9.43,9.43,0,0,1-4.14.94h-.14c11.14-.8,22.29-1.55,33.43.18,2,.74,4.58.82,4.25,4-1,1.5-2.54,1.67-4.14,1.79a513.37,513.37,0,0,1-56.3,1.21c-16.18-2.29-32.45-.71-48.67-1.15-4.67-.13-9.34,0-14,0a109.13,109.13,0,0,0-25-1.1c-2.93.17-5.93.32-6,4.45-.86,7.37-.4,14.76-.52,22.14,0,5.78.06,11.55,0,17.32C550.36,259.63,550.81,262.23,548.43,264Z" transform="translate(-450.5 -147.26)"/><path class="cls-3" d="M845,147.36h76.84c1.76,6.31-3,6.65-6.88,7.11-11.87,1.43-12,1.28-14.69,13-1,4.18-2.76,7.51-6.7,9.55a10.12,10.12,0,0,0-5.19,6c-1,3-3,4.53-6,4.23s-4.63-2.25-5.66-5.06c-.85-2.33-.87-4.86-2-7.5-1.11,2.39-.62,4.63-.79,6.77-.19,2.52-.21,5.55-2.5,6.71-7.7,3.87-13.92,11-23.31,11.15-3.54,0-6.64.74-9.34,3-1.4,1.19-3,2.37-4.8,2.15-7.1-.84-13.73,2.33-20.59,2.41-5.55.07-8.85,2.12-10.92,6.94-8.54.24-17.07,2.63-25.46-1.93-4.39-2.38-19.26,1.76-21.71,5-5.23,2.78-10.38.79-15.55-.23-2.21.26-4.42,0-6.63.09a9.24,9.24,0,0,1-3.58-2.11c-1.92-3.81,0-6.23,3.29-7.41,10.32-3.67,20.65-7.26,30.92-11.06,4.82-1.78,7.3-3,6.33-8.72-.8-4.72,3.41-8,7-5.53,5.83,3.87,12.1,2.68,18.14,2.54,13-.3,14.56-1.82,18.53-13.89.78-2.36-.5-3-2.06-4.19-4.32-3.31-3.85-5.1.07-8.87,5.08-4.88,9.78-10.39,17.73-8.6,5.25,1.18,10.09.18,15-1.16C844.64,147.7,844.79,147.49,845,147.36Z" transform="translate(-450.5 -147.26)"/><path class="cls-4" d="M699.39,211.07H659.22c.71-2.72,1.95-2.77,2.92-3.2,3.69-1.64,7.28-3.59,11.1-4.84,4-1.31,4.38-5.13,6.5-7.56,2.47-2.85,5.53,3.77,9.53,2.13a8.66,8.66,0,0,0,4.5-3.78,22.83,22.83,0,0,0,3-11.63c.14-14.11.21-14.13-13.57-13.57a7.83,7.83,0,0,1-5.07-1.39c-1.91-1.34-3.93-1.45-5.51.23-4,4.18-9.61,4.7-14.44,6.93-5.35,2.48-11-2.09-10.45-8,.66-6.61,11.73-14.59,18.17-13.1a4.71,4.71,0,0,1,3.37,3c3,7.19,9.22,5.94,15,5.67a3.64,3.64,0,0,0,2.72-1.56c.73-1.65-.93-2.16-2-2.86-1.81-1.14-4.93-1.79-4-4.53.84-2.58,3.89-1.44,6-1.6,3.76-.28,7.84.37,9.85-4.09h66c4.55,3,11.12,2.26,14.4,7.81.89,1.51,2.38,2.65,3.24,4.28,1.45,2.78,2,5.55,0,8.27A6.16,6.16,0,0,1,772.6,170c-4.08-1.67-7.73-.6-11.73.4-5.3,1.32-6.24,4.41-5.17,9,.41,1.76.72,3.54,1.16,5.29,1.22,4.84-.52,7.83-5.34,9.11a110.81,110.81,0,0,0-26.59,10.53c-5.92,3.35-13.92,4.3-21.21,5.34C702.17,209.91,700.56,209.74,699.39,211.07Z" transform="translate(-450.5 -147.26)"/><path class="cls-5" d="M1058,292.42v10.84c-1.1,1.27-1.22,2.83-1.36,4.42-.34,3.7-.88,7.52-5.64,7.76-4.45.23-9-1.85-9.17-6.17-.4-8.31-9.62-8.12-12-14.26-.57-1.46-2.4-.14-3.31.86-2.09,2.27-2.73,5.09-2.89,8.09-.47,8.73.86,17.54-1.51,26.21-.8,2.91,1.25,5.17,3.35,6.94,4.77,4,5.61,9,3.58,14.61-1.66,4.58-1.73,8.28,3.84,10.25,2.46.87,3.57,3.25,3.67,6a7.24,7.24,0,0,0,2,4.91c1.11,1.15,2.44,2.32,4.1,1.73,2.17-.78,1.09-2.56.78-4-1.91-9.15-.13-17.84,3.05-26.42,1-2.74,2.29-5,5.56-4.89,3.55.13,4.14,2.89,4.56,5.66.3,2,.33,4,1.42,5.8v90.83c-3.68,1-4-1.93-4.63-4.23-1.28-4.66-3.46-7.49-9-6.81-5.06.62-7.2-3.33-8.06-7.46a61.69,61.69,0,0,0-8.07-21.14c-2.66-4.22-.93-10.75-3.36-15.92-.84-1.77-1.19-3.87-2.36-5.49-5.6-7.78-6.48-16.71-6.16-25.85a14.14,14.14,0,0,0-3.81-10.46,24.47,24.47,0,0,1-6.26-18c.66-13.69-.29-27.44,1.47-41.08.81-6.22-1.76-10.26-6.47-14.46-6.45-5.75-14.07-8.42-21.6-11.71-4.2-1.84-6.65.9-9.47,3a2.78,2.78,0,0,1-2-.7c-2-3.09-.92-6.5-1-9.77,1.84-5.23,5.39-6,10.61-5.26,15.74,2.21,29,10.6,43.16,16.77,4.05,1.77,6.92,1.78,9.17-1.94,4.53-7.5,12.82-11.23,17.79-18.29a5,5,0,0,1,6.06-1.67c2.28.79,2.72,2.77,2.73,4.93,0,2.9-.65,5.91,1.36,8.48v8.13c-10,3.32-14.52,10.26-13.16,19.68.82,5.64,3.29,9.21,9.46,8.9A5.75,5.75,0,0,1,1058,292.42Z" transform="translate(-450.5 -147.26)"/><path class="cls-6" d="M904.29,555.42H818c-4.34-2.07-9.06-1.67-13.65-2.06-1.86-.16-3.7-.29-4.32-2.33a3.76,3.76,0,0,1,2.43-4.95c6.12-1.79,9.72-7.12,14.91-10.17,2.42-1.42,4.65-3.07,4.26-6.26a6.51,6.51,0,0,0-5.33-5.51c-8.9-2-17.7-4.5-27-4.6-8.59-.1-16.86.7-24.72,4.48a7.27,7.27,0,0,1-5.94.32c-9-4.22-18.19-1.83-27.39-1.5a25.86,25.86,0,0,1-15.57-4.69c-1.73-1.18-2.71-2.26-1.46-4.3,10-1.64,20.13-2.65,30.22-1.73,4.63.42,9.38.12,13.92,1.31,4.3,1.14,6.5-3.78,10.47-3.41a10.59,10.59,0,0,0,4.48-.83c10.23.06,20.48.24,30.59,2,3.11.53,6.26-.64,9.26.59.68.25,1.37.49,2,.71,13.15,5.34,27.17,3.26,40.68,3.8,12.38.5,24.92,1,37.34.46,9.35-.45,18.59-1.43,27.85.7.95.22,2-.36,3.08-.75a9.82,9.82,0,0,1,12.71,5.6,5.44,5.44,0,0,1-2.32,7.07c-4.75,2.95-9.11,6.46-14.12,9.14-5.4,2.89-10.06,7-16.56,7.75-2.65.33-4.48,2.6-1.13,5.19C904.05,552.44,905.15,553.57,904.29,555.42Z" transform="translate(-450.5 -147.26)"/><path class="cls-7" d="M801.81,212.39c-.94-7.82.61-9.84,8-9,8.39.9,16-3.59,24.54-2.8,3.34.31,7.19-3.37,7.7-8.15,6.74,5.28,9.25,5.14,14.15-1a6.43,6.43,0,0,1,5.85-2.61c6.33.42,8.26-3.42,8.47-8.83.15-3.84.06-7.68.15-11.52,0-1.33.07-2.91,1.54-3.49,1.93-.75,2.78.93,3.72,2.14,2,2.6,2.64,5.66,2.82,8.88.14,2.5.54,5.05,2.26,7,1.36,1.51,3.17,2.5,3.48-.84.15-1.63.13-3.59,1.65-4.19,9.56-3.75,11.38-12.47,13.56-20.94,1.49-5.78,4.94-7.57,10.59-6.13,4.41,1.13,8.5.46,11.51-3.47h31a34.1,34.1,0,0,0,19.8,16.83c5.21,1.82,7.31,7.46,10.82,11.35,1,1.11.14,3.08-1.25,4.15-1.59,1.24-3.51,1.51-5,.21-7.2-6.37-16.48-2.17-24.48-4.94-3.53-1.22-6.27,1.41-5.5,6.07,1.17,7-.92,10.21-7.44,8.42-10.17-2.79-18.41-1.83-26.46,5.37-3.39,3-8.58,3.93-13.48,3-4.54-.89-8.43.67-12.08,3.06-8.81,5.8-19,7.08-29,8.06a72.91,72.91,0,0,0-16.67,4,34.25,34.25,0,0,1-6.16,0c-4.86-2.39-9.72-2-14.58,0a83,83,0,0,0-14.41,1.34C805,214.35,803,214.46,801.81,212.39Z" transform="translate(-450.5 -147.26)"/><path class="cls-8" d="M714.21,514.76c10.42,5,21.25,6.67,32.59,3.85,3.6-.9,6.8-.82,10.19,1.4,5.51,3.59,10.39-.72,15.14-2.55a25.94,25.94,0,0,1,12.33-1.66c8.22.64,16.3,1.91,24.46,2.84a32.27,32.27,0,0,1,13.77,4.77c5.37,3.37,6.1,10,.57,13.08-7.16,4-12,11.59-22.13,13,6.45,2.64,12.74,1.31,16.88,5.89H716.91c-4.42-4.44-4.5-6.26-.17-10.31,3.85-3.6,8.36-6.09,13.67-6.41,3.44-.2,6.46-1.62,9.65-2.55a4.63,4.63,0,0,0,3.37-5.2c-.37-2.83-3.06-2.13-4.9-2.16-4-.07-7.75,2-11.8,2.16-5-1.22-9.44-3.13-12.64-7.5-2-2.69-5.33-2.25-8.21-3-4.79-1.22-10.59-.24-13.7-5.65C699.51,510.36,706.85,509.32,714.21,514.76Z" transform="translate(-450.5 -147.26)"/><path class="cls-9" d="M699.39,211.07c5.75-5.5,13-7.5,20.52-8.92,1.51-.29,3.28.22,4.5-.94,7.12-6.8,16.33-8.48,25.39-10.43,3.93-.84,4.41-3.12,3.58-6.48-.91-3.7-1.29-7.57-2.52-11.15-1.37-4,.34-6.19,3.77-5.89,6.65.58,12.8-5.13,20-.54,2.89,1.85,4.57-2.15,3-5.06-2.21-4.2-5.19-8.09-9.94-9.55-2.7-.82-4.39-2-5-4.75H845c-4.49,3.92-9.19,5.89-15.36,3.49-3.9-1.53-7.72.33-9.9,3.89a19.17,19.17,0,0,1-8.28,7.16c1.94,2.5,4.75,1.33,6.79,2.29,3.82,1.8,5,4.58,1.1,6.95-3.73,2.27-5,5.31-6,9.19-1.26,5.1-4,8.13-10.13,7.34-5.28-.67-10.74,0-16.12.17-.86,0-2.28.06-2.5.53-4.33,9.25-5,.1-6.89-1.47-1.15-.94-1.66-3.15-3.46-2.66-2.24.62-1.08,2.58-.81,4,1.78,9.79,1.62,9-7.62,11-8.2,1.8-16.13,5.23-23.85,8.69-3.89,1.75-9.4.55-11.57,5.8a3.28,3.28,0,0,1-1.95,1.11c-5.76-.47-11.53-.44-17.29-.44-2.29-.19-4.83.46-6.38-2.05A9.34,9.34,0,0,0,699.39,211.07Z" transform="translate(-450.5 -147.26)"/><path class="cls-2" d="M679.16,555.42H605c-1.13-1.86-1.58-3.91-.15-5.68,4.55-5.65,2.39-10.94-.61-16.23-1.66-2.93-3.4-5.79-3.59-9.33-.37-6.58,2.19-9.65,9-10.94a95.61,95.61,0,0,1,26.27-1.18,291,291,0,0,0,38.07.73c6,4.41,13.08,4.23,20,4.63a14.2,14.2,0,0,1,6.37,1.74c8.93,5.06,8.9,7.36,2,14.82-4.29,4.64-8,5.76-14.38,4.65-10.58-1.83-8.39-3.8-13.65,6.6a27.79,27.79,0,0,0-1.6,3.27C674.65,550.93,682.19,548.52,679.16,555.42Z" transform="translate(-450.5 -147.26)"/><path class="cls-10" d="M1041.78,147.36H1058v46.09c-4.31,1.25-4.52-2.53-5.81-4.87-1.09-2-1.89-4.37-4.61-4.29s-2.62,2.73-3.3,4.51C1040.81,198,1033,198.92,1025,199c-3.84,0-7.3.67-9.72,3.62-6.72,8.22-16.51,7.73-25.29,8-7.21.22-14.65,1.66-22-.55-3.09-.93-5.87,3-9.35,3-3.17.05-6.33.14-9.49-.09-4.39-1.92-9-1.86-13.58-1.23-6.38-.13-12.77.35-19.13-.29-4-2.74-2.54-5.42.63-7.12,4.15-2.22,8.64-3.89,13.57-2.69,6.77,1.66,13.38.68,19.86-1.46a15.61,15.61,0,0,1,7.2-1.07c4.36.56,7.58-1.09,10.27-4.88,3.8-5.38,9.41-6.27,15.3-3.22,9,4.65,11.32,4,16.37-5.08,1.36-2.44,3-4.67,6.07-4.7,4,0,3.69-1.84,2.45-4.73-3.58-8.34-4.87-9.29-13.55-7-6.66,1.75-12,.41-16-5.25-2.27-3.21-5.61-4.38-9.06-5.66-2.06-.76-4.45-.86-6.16-2.51-1.31-1.28-2.58-2.62-2-4.69a3.51,3.51,0,0,1,4.2-2.59c7.84,1.38,16,.15,23.65,3.47,6.51,2.82,13.63-.56,20.48,1.15,3.26.81,6.12,1.37,7.77,4.54-2.94-5.62-1.65-7.58,4.35-8.4C1028.45,148.64,1035.5,151.37,1041.78,147.36Z" transform="translate(-450.5 -147.26)"/><path class="cls-11" d="M1041.78,147.36c-2.41,5-7.08,3.8-11.19,4-1.79.11-3.6-.05-5.38.06-2.17.13-5.16-.62-6,1.84-1,3,2.33,3.25,4.09,4.28s3.2,1.89,2.38,4.15c-.69,1.89-1.33,4-3.44,4.75a3.49,3.49,0,0,1-4.41-2.24c-2.69-7.54-9.05-7.61-15.29-8.09-.22,0-.5-.19-.65-.1-11.18,6.44-19.5-5.92-29.93-4.63-1.47.18-3-.72-4.59-.92-1.32-.17-2.9-.24-3.39,1.39s.76,2.62,2,3a44.93,44.93,0,0,1,18.12,11c3.24,3.2,8.17.67,12.1-.88,7.42-2.93,9.38-2.3,12.43,4.8a51.06,51.06,0,0,0,6.68,11.68c1.11,1.41,2.1,3.2.64,4.92s-3.37,1.11-4.92.16c-5.71-3.51-8.77-2.35-9.07,4.72-.2,4.67-3.51,5.94-7.45,6s-7.36-1.72-10.86-3.26c-6.93-3-10.26-2-13.61,4.52-1.45,2.84-3.5,4.08-6.41,3.9-12.23-.72-23.85,6.06-36.51,2.48-3.89-1.11-8.8,1.14-12.06,4.74-3.28,1.5-6.75.26-9.72.69,6.5,0,13.39-.07,20.27,0,1.6,0,3.62-.94,4.74,1.26a2.53,2.53,0,0,1-1.06,1.93c-8.85,1.81-17.78.57-26.66.78-7.8.18-15.61.26-23.4-.12-2.39-.46-3.63-2-3-4.34a7.41,7.41,0,0,1,6-5.63c7.44-1.5,14.73-3.69,22.07-5.48s13.94-4.81,20.81-7.28a28.09,28.09,0,0,1,14.32-1.69c7.46,1.11,9-.32,9.09-8,.09-5.78,2-7.24,7.87-6.82,9.58.67,18.86,1.91,26.59,8.53,1.84,1.58,4.71,2.62,6.55-.08s-.72-4-2.35-5.48c-3.82-3.53-8.05-6.65-11-11.09a6.31,6.31,0,0,0-4.31-3c-6.81-.68-10-6.91-15.35-9.89-3-1.65-2-4.56.28-6.73Z" transform="translate(-450.5 -147.26)"/><path class="cls-12" d="M997.3,555.42H985.17c-4.93-4.84-3.82-11.44-4.57-17.33-.8-6.23-.6-12.59-3.17-18.49-2.34-6.48-7.74-8.46-13.81-9.47-1.12-.13-2.24-.25-3.35-.47a64.49,64.49,0,0,0-12.77-1c-26.26.54-52.51-.57-78.8.95-15.08.87-30.39,1.43-45.53.2-12.23-1-24.49-1.71-36.71-2.89-6.35-.61-12.59.08-18.82.48-18.12,1.16-36.27-.47-54.38,1.12-13.92,1.23-27.79-1.28-41.71-1.35-2.2,0-4.71-.11-4.77-3.4,3.25-3.27,7.38-1.39,11.1-1.93h52.54c7.21-.15,14.54.69,21.46-2.28a45.26,45.26,0,0,1,5.28-1.59c1.09-.16,2.19-.23,3.29-.34,4.11-.72,8.22-1.37,12.42-.9,20.12,6.18,40.93,3.95,61.45,5.14,16.65,1,33.33-.6,50,0,12.15.44,24.27-.25,36.5,1.12,11.57,1.29,23.43-.83,35.08-2.3a58.19,58.19,0,0,1,7.81-.16c5,.68,10,5.33,15.17.4,3-2.36,3.69-5.23,3.37-9.16-.4-5-1.28-10-1.66-15-.27-3.38-.42-7.08,4.7-7,5,.71,2.76,6.36,5.78,8.38,11.91.57,15.83,7.11,16.51,18.73.78,13.16,3.86,26.31,1.74,39.45-.89,5.54-1.9,12.5-9.29,14.62C998,551.59,998.49,554.12,997.3,555.42Z" transform="translate(-450.5 -147.26)"/><path class="cls-13" d="M904.29,555.42c-2.58-.7-5.2-1.31-7.73-2.15-2-.66-3.74-1.83-3.71-4.26s1.57-3.54,3.67-4.27c2.52-.89,4.92-2.21,7.49-2.92,10-2.75,18.22-9,27-14.09,1.67-1,4.3-2,2.54-4.46-1.47-2-3.82-6-5.89-4.63-7,4.77-13.4-.56-20.09-.19-14,.75-28,.35-42,.21-10.51-.1-21-.79-31.51-.71-6.51,0-13,.9-18.74-3.2,2.88-3.4,6.7-1.66,10.09-1.66,7.11,0,14.28,1.51,21.22-1.29a5.72,5.72,0,0,1,3.33-.05c19.53,4.22,39,.24,58.55-.15,8.63-.17,17.31-.71,25.92.78a51.4,51.4,0,0,0,15.06.17c7.61-.94,16.86,7,18.37,13.76,2.38,10.68,2,21-7,29.11Z" transform="translate(-450.5 -147.26)"/><path class="cls-14" d="M1058,350.71c-.41-.53-.8-1.09-1.24-1.6-1.8-2.14-1.29-7-4.75-6.56s-3.58,5-4.09,7.83c-1.31,7.38-4.29,14.84.77,22.25,2.12,3.12-.35,6.07-2.75,8.25-2.64,2.41-3.73-.6-5.45-1.76-4.3-2.91-8.93-5.3-7.86-12,.33-2.06-2.16-2.6-4-2.83-5.76-.72-6.58-4.36-4.54-8.76,3.45-7.44,4-13.76-4.16-18.55a5.43,5.43,0,0,1-2-6.71c3.58-8.51,2.52-17.41,2.13-26.09-.33-7.3,4.64-11.49,7.71-16.76a2.71,2.71,0,0,1,5.09,1c.22,10.39,10.1,10.7,15.37,16-.17,2.11-4.44.05-3.75,3.22.48,2.21,2.16,3.37,4.13,4.08a4.32,4.32,0,0,0,5.35-1.68c1.58-2.15,1.52-5.28,4-6.89Z" transform="translate(-450.5 -147.26)"/><path class="cls-12" d="M970.33,261.23c.28-2.79-.82-6.27,2.8-7.6,3.22-1.19,6.17-.08,8.69,2.2a8.83,8.83,0,0,0,6,2.61c3.93,0,6.73,2,9.33,4.66a29.66,29.66,0,0,0,5.63,4.77c8,4.9,9,8.21,8.57,17.64-.43,10-4.32,20-.06,30.07.44,1-.19,2.64-.56,3.91-2.72,9.2-1.56,17.43,6,24a9.73,9.73,0,0,1,3.23,9.79c-2,10,0,18.83,5.06,27.79,2.91,5.11,6.14,11,5.1,17.75-.19,1.17.31,3.25,1.12,3.67,7.45,3.79,6.4,11.24,7.75,17.62,1,4.67,2,8.48,8.29,5.79,3.47-1.49,6.17.57,7.33,4,1.3,3.82,2.25,7.75,3.35,11.63V447c-6.47.64-12.74.46-17.3-5.2a5.67,5.67,0,0,0-3.6-2.19c-3.68-.64-5.17-3.12-5.69-6.57a75.66,75.66,0,0,0-5.21-17.25c-2.15-5.3-2.91-11.49-3.65-17.26a57.47,57.47,0,0,0-7.07-21.61,21.73,21.73,0,0,1-2.46-5.71,33.67,33.67,0,0,0-.57-4.15c-2.35-7.35-4.53-14.57-9-21.25-2.64-3.94-1.21-10.29-3.89-15.08-2.48-4.42-2.92-8.9-2-14.18,1.21-7,1.31-14.37-1.17-21.39a15.3,15.3,0,0,1-.93-6c.49-8.83-3.71-14.09-11.59-17.77C978.81,269.05,972.45,267.76,970.33,261.23Z" transform="translate(-450.5 -147.26)"/><path class="cls-15" d="M959.55,210.8c8.92-5.84,19-2.61,28.51-3.51,9.71-.93,19.84,0,26.81-9.06,2.26-2.94,5.43-3.52,9.1-2.92a20.08,20.08,0,0,0,12.44-1.86,8,8,0,0,0,4.59-7.72c-.09-2.83-1.25-7,2.65-7.18s8.66.77,10.72,5.47c1.35,3.07,1.48,6.63,3.59,9.43v20.34c-9.52,2.06-19.35,2.22-28.83,4.61-1.52.38-3.23.48-4.49,1.35-14.51,10.1-30.81,7.4-46.83,6.81A28.47,28.47,0,0,1,970,224.8c-3.83-1.94-2.29-6.34-4.17-9.18-1.07-1.42-2.87-1-4.21-1.65A4.43,4.43,0,0,1,959.55,210.8Z" transform="translate(-450.5 -147.26)"/><path class="cls-16" d="M679.16,555.42c-2.78-4.13-6.75-2.47-10.42-2.12-2,.2-4.45.82-5.44-1.37-1.29-2.85,1.76-3.14,3.31-4a14.23,14.23,0,0,0,7.07-10.18c1.07-5.15,3-7.61,8.81-4.42,7.79,4.25,14.14,2.49,20-4,2.19-2.43,1.9-4.28-.43-6.26-4-3.41-8.73-5.11-13.76-4-5.52,1.26-9.62-.37-13.23-4.28.63-1.49,1.91-1.86,3.33-2,.65,0,1.31,0,2-.06,3.35-.11,6.57-.1,9.45,2.29,3.5,2.89,8.15,1.57,12.21,2.71,4.76,1.32,9.63,2.73,12.69,6.49,3.89,4.8,7.79,5.8,12.93,2.73,5.65-1.24,11.3-2.53,17.12-2.14,2.17.15,4.82.09,5.91,2.42,1,2.1-1.45,3-2.44,4.35-.13.18-.3.33-.43.51-5.47,7.95-6.43,8.61-16.26,9.81a25,25,0,0,0-11.14,4.36c-3.38,2.28-5,5.08-3.54,9.16Z" transform="translate(-450.5 -147.26)"/><path class="cls-17" d="M956.86,147.36c-.32,6,4.7,8.13,8.56,10.24,6,3.28,11,7.54,16,12.13,3.75,3.45,7.94,6.59,13.3,7.59,3.82.71,4.06,2.62,1.64,5.68-7.17,9.06-9.06,9.47-18,1.35-6-5.41-13.23-6.39-20.53-7-5.91-.49-7.52,2.19-4.54,7.4,2.46,4.3,1.23,6.06-3,7.32-4.58,1.38-8.89,4.55-13.88.66-1.1-.85-3.68-.63-5.17,0-15.33,6.8-31.09,12.05-47.69,14.6-2.87.44-4.58,2.68-6.25,4.85-2,3.35-5.66,1.93-8.45,3-3.08.64-6.15,1-9.18-.19a35.34,35.34,0,0,0-11.58-1.92c-2.12-.06-4.47.35-5.83-2,2.72-4,7.24-3.09,11-3.79,13.28-2.47,26.56-4.79,38.07-12.61,1.9-1.29,3.64-2.2,6.19-1.56,9.63,2.4,18-.78,23-8.82,2.79-4.4,5.71-5.64,9.55-1.37a9.45,9.45,0,0,0,5,3.21c2.87.61,6.17,1.5,8.51-.23,3-2.21-.76-4.26-1.29-6.4-1.52-6-.25-8,6-7.67,7.24.38,14.17,3.65,21.81,1,3.85-1.36,5.53,5.84,11.76,4.53-4.54-4.21-5.76-10.21-12.67-11.11-6.51-.85-16-12.18-16.49-18.85Z" transform="translate(-450.5 -147.26)"/><path class="cls-18" d="M451.35,536.44a7.32,7.32,0,0,0,3.7-8c-.93-5.49,1.48-8.3,6.9-8.16,5.06.13,8.71-1.44,10.41-6.59.66-2,2.47-3.14,4.22-4.21s3.75-2.39,3.81-4.48c.17-6.43,2.48-11.93,5.21-17.68,1.51-3.18,1.8-6.52,5.35-8.43,2.19-1.19,4.05-3.59,4.14-5.94.31-7.71,4.69-14.35,4.37-22.56a25,25,0,0,1,7.14-18.32c3.63,4.4,4.14,9.66,4.08,15.07-1.61,5-2.76,10.21-4.34,15.26a17.79,17.79,0,0,0-2.65,8,67.29,67.29,0,0,1-9.77,27.34c-1.82,2.79-2,6.38-4.2,9-4.41,13.64-10.59,26.62-14.82,40.31-1.09,3.53-2.39,6.77-6,8.38-5.84,0-14,2.3-16.88-.64s-.64-11.1-.64-17Z" transform="translate(-450.5 -147.26)"/><path class="cls-19" d="M968.88,211.12c2.36,3.82,1.15,8.08,1.47,12.15,4,5.14,9.28,6.66,15.67,7.35,11.82,1.26,23.49,2.63,35.33.22,4.87-1,9.62-1.92,13.84-4.76,3.65-2.45,7.9-2.92,12.16-3.36,5.68-.58,9.59,1.2,10.61,7.33v9.49c-11.06-.55-15.77,9.59-23.55,14.49-9.06,5.71-16.94,6.47-26.16,1.6-11.87-6.27-24.66-9.66-38.3-8.6a2.62,2.62,0,0,1-2.24-1.22c-1.22-3.13-.6-6.4-.78-9.6a150.47,150.47,0,0,0-.4-18.27A7.76,7.76,0,0,1,968.88,211.12Z" transform="translate(-450.5 -147.26)"/><path class="cls-20" d="M960.9,555.42a13,13,0,0,1,2.53-7.52c4.5-7,4.08-14.93,1.55-22.11S956.67,515,948.3,514.6c-27.07-1.18-54.07.94-81.06.88-14.78,0-29.74,2.24-44.54-.53-2.39-.45-4.92-.15-7.38-.2H814c-11.51-1.64-22.94-3.77-34.48-5.24-2.56-.32-4.09,1.42-6,2.53h-4c-5.66,1.08-11,4.89-17.21,1.6-1.85-1-4.34-.1-6.5.79a20.22,20.22,0,0,1-12.57.6c-7.77-1.92-15.63-1.4-23.43-2.06-10.62-.91-21.17.72-31.72-.38-3.2-.34-6.17-.51-4.38-5.06,4.48-1.78,9.15-.55,13.72-.9,11.42,1.21,22.83.34,34.26.09,19-.42,38,.89,57.05-1.34,8-.94,16.2.48,24.09,1.6,17,2.41,34,2.56,51.12,2.35,13.82,1.2,27.58-1,41.4-.76,17.48.35,35-.18,52.46.2,8.8.19,17.4,3.15,22.54,10.45,5,7.12,6,16,3.75,24.69-1.07,4-1.35,8.6-5.07,11.51Z" transform="translate(-450.5 -147.26)"/><path class="cls-21" d="M1058,230.05c-5.16-4.82-13.44-5.63-20.39-1.35-9.76,6-20.54,6.21-31.46,7.16-9.12.79-17.59-2.45-26.58-2.24-9.15.2-9.17-.48-9.18-10.35,8.9.06,17.81-.5,26.69.85,5.91.91,11.56-.58,16.86-3.14,9.05-4.36,17.94-9,28.53-7.91,1.58.17,3.38-1,5-1.76,4.22-2,7.78-1.52,10.56,2.48Z" transform="translate(-450.5 -147.26)"/><path class="cls-22" d="M673.76,508c2,3.4,5.4,2.64,8.44,2.67,14,.11,28.09-.5,42,1.52,8.6,1.25,16.68,2.27,25.63.65,6.05-1.1,13.08-1,19.67-.79-5.13,3.32-10.13,6.21-16.72,3.28-3.75-1.67-7.86.77-11.88.8-8.92.07-17.72-2.19-26.67-1.36-7.19-.17-14.38-1.46-21.56,0-4,2.34-8.09.45-12.14,0h-1.34c-5.06-2.7-10.58-1.29-15.84-1.47-17.87-.6-35.74-2.36-53.65,0-11.49,1.52-19.87,7.76-16.8,21.28,1.08,4.75-.4,9.86,0,14.82.35,3.87-3.06,4.53-5.42,6H576.71c-4.37-9-3-18.5-1.47-27.8.47-2.94,1.85-6,2.65-8.94,2.56-9.41,9.7-12,17.93-12.66,21.65-1.71,43.33-2.23,65,0C665.12,506.48,669.65,506,673.76,508Z" transform="translate(-450.5 -147.26)"/><path class="cls-23" d="M587.5,555.42c4-7.16,2.51-15,1.33-22.21-1.89-11.4,3.64-22.06,15.78-22.26,23.1-.37,46.24-1.27,69.3,1.17a7.33,7.33,0,0,1,5.26,2.63h-4c-16.32-.13-32.64.41-48.92-1.56-6.64-.8-13,1.59-18.86,4.18-5.19,2.27-4.08,7-2,11s4.79,7.67,6,12.07,2.64,8.9-3.43,11.28c-1.23.49-1.91,2.39-2.85,3.64Z" transform="translate(-450.5 -147.26)"/><path class="cls-24" d="M987.87,480.85q-1.36-4.73-2.72-9.46a6.46,6.46,0,0,1-2.27-4.68c0-3.73-2.42-4.76-5.75-4.32-5.43-2.18-5.5-7.74-6.8-12.07-1-3.45,3.22-4.12,5.69-5.38,4.9-2,9.72.76,14.6.25a2.92,2.92,0,0,1,2.81,1.55c3.36,7.05,9.2,11.53,15.27,16,3.68,2.72,4.86,7.53,5.13,11.87.5,8,3.35,15.2,5.66,22.6a64.26,64.26,0,0,1,.07,6.51c-1.14,13.1-1.9,26.1,1.8,39.06,1.13,4,1.68,8.64-1.14,12.61h-4.05c-9.19-5-6.56-13.9-6.62-21.51-.15-17.44-1-34.78-4.36-51.93a12.91,12.91,0,0,0-1.35-4.5c-1.52-2.41-2.53-5.88-5.85-5.89s-2.54,3.67-3.59,5.71C993,480,991.72,482.77,987.87,480.85Z" transform="translate(-450.5 -147.26)"/><path class="cls-25" d="M1014.82,367c0,1.36,0,2.71,0,4.07,6.71,14.27,5.06,30.16,8.63,45.05,2.38,9.88,3.87,20.23,10.39,28.29,5.59,6.93,9,16.23,18.9,19.08,2.49.72,2.51,3.43,3.22,5.71,1.62,5.18-1,10.82,2,15.75V501.2c-3.44,1.57-4.57-.65-5.84-3.28-2-4.07-3.38-8.38-5.19-12.52-.43-1-.44-2.35-1.24-3.07-8.74-7.95-11-19.72-17.07-29.27a154.32,154.32,0,0,0-11.1-15.5,182.7,182.7,0,0,1-7.5-55.76c.12-4.94.13-9.83-1.36-14.63-.58-1.88-1.17-4,.56-5.71C1014.25,360,1013.07,365,1014.82,367Z" transform="translate(-450.5 -147.26)"/><path class="cls-26" d="M987.87,480.85c3.84-2.64,3.72-6.9,4.49-10.85.42-2.21,1-4.63,3.4-5.47,2.8-1,3.81,1.73,5.34,3.21a26.72,26.72,0,0,1,8.44,19.06c.37,9.06,2,17.79,1,27.22a61.61,61.61,0,0,0,1.75,20.68c1.83,6.84.1,14.3,3.85,20.72h-6.74c-3.59-3.08-7.19-1.52-10.78,0H997.3c-2.37-3.66-4.18-7,2.6-7.7,2.14-.2,2.25-2.48,3.11-4,8.4-15,4.25-30.13.76-45.23-.55-2.38-1.86-4.34-.76-7,1.38-3.3-.78-5.62-3.1-7.48-2.67-2.13-4.4-.43-6.89,1.26C987.76,488.85,989.25,482.82,987.87,480.85Z" transform="translate(-450.5 -147.26)"/><path class="cls-14" d="M969.35,246.3c8.17-4.46,16.18.22,24.21.72,6.73.42,13.43,1.86,19.11,6.9,4.1,3.63,10.3,3,14.63.27,5.17-3.23,10.9-6.08,14.81-11.09,4.37-5.6,9.52-7.08,15.85-3.56v14.92c-2.85-1.84-3.25-4.59-3-7.68.11-1.4-.34-2.78-2-3.08-1.24-.24-2,.67-2.75,1.58-6.49,8.15-16.4,13.13-20.88,23.24-1.32,3-3.7,2.43-6.63.59-14.17-8.92-29-16.51-45.35-20.7a8.46,8.46,0,0,0-8.08,2C967.78,249,967.76,247.64,969.35,246.3Z" transform="translate(-450.5 -147.26)"/><path class="cls-27" d="M526.84,555.42H517.4c-6-7.53-1.43-14.86.94-21.89A34.52,34.52,0,0,1,526.16,521c4.05-4.26,5.13-9.9,6.6-15.27a58.65,58.65,0,0,1,3.32-9.5c1.6-3.42,3.95-6.38,8.17-2.73,3.06,18.44,5.25,36.89,1.45,55.52-.49,2.41-.86,4.69-2.69,6.44h-9.43c-2.11-2.94,1-5,1.29-7.55.2-2.32.17-4.57-1.44-6.4-1.13-1.27-2.48-.77-3.64.07a6.17,6.17,0,0,0-2.74,6.46C527.52,550.51,529.75,553,526.84,555.42Z" transform="translate(-450.5 -147.26)"/><path class="cls-28" d="M1058,484.93c-2.92-2.24-2.58-5.51-2.74-8.65-.27-5.24-1.27-9.84-7.72-10.85-2.75-.43-4.45-2.88-6.15-5-7.84-9.82-13.52-21-19.74-31.83-2.2-3.82.75-8.38-.14-13-2.84-14.72-4.52-29.68-6.64-44.54l2.69,4.07c2,4.95,2.79,10.38,5.6,15a3,3,0,0,1,.65,1.88c-1.4,11.17,2,21.38,6.21,31.42a8.55,8.55,0,0,1,.77,3.1c-.23,10.29,8.51,13.69,14.46,19.16,1.07,1,2.8,1,4.57,1,4.66-.16,8.49,1.19,7.17,7.34-.18.86.47,1.7,1,2.43Z" transform="translate(-450.5 -147.26)"/><path class="cls-29" d="M969,555.42a54.51,54.51,0,0,1,1.39-11.33c4-19.15-3.48-32.56-23.37-33.06-25.52-.65-51.13-1.67-76.68.81-5.25.51-10.77,1.26-15.92-1.16,1.64-2.17,4.16-2.05,6.41-2.23,18.71-1.55,37.46-1.12,56.19-1.15q17.79,0,35.57,0c2,0,3.88.72,5.88.92,15.41,1.57,22.66,9.81,22.64,25.54a116.45,116.45,0,0,0,.83,14.22c.32,2.7.4,5.5-2.15,7.43Z" transform="translate(-450.5 -147.26)"/><path class="cls-30" d="M543,493.06c-5.42,1.84-4.92,7.36-6,11.26-2.5,8.67-5.28,16.36-12,23.26-7,7.17-8.19,17.67-7.55,27.84H512a6.3,6.3,0,0,1-2.6-6.24c1.38-6.7,1.62-13.61,3.71-20.17,5-3.59,6.12-8.88,6-14.59,0-4.2,1-8.22,1.63-12.3a27,27,0,0,1,1.35-5.81c2.75-10.23,2.77-10.21,13.4-10.82.61,0,1.15-.62,1.67-1.06,6-2.19,7.92.08,6.69,8Z" transform="translate(-450.5 -147.26)"/><path class="cls-31" d="M487.81,505.3l3.86-8.21c2.36-3,4.18-2,5.44.92.81,1.87.26,4,.7,6.16,1.87-.05,3.6-2.12,5.58-.5,2.29,3.54.69,7.42,1,11.13-1.29,2.83-.89,5.9-1.25,8.85-5.53,4.8-4.58,10.91-3.32,17.07-2.54,5-2.67,11.27-8,14.7H479.66c-5.72-7.62-4.35-14.83.79-23.21C483.26,527.63,488.41,510.38,487.81,505.3Z" transform="translate(-450.5 -147.26)"/><path class="cls-32" d="M1058,292.42c-7.53,5.4-14.29,2.07-16.41-6.93-2.6-11,3.44-18.55,8.67-26.63,1.5-2.31,3.11-2.18,4.66.2a33,33,0,0,0,3.08,3.53Z" transform="translate(-450.5 -147.26)"/><path class="cls-33" d="M673.76,508c-8.9,1.81-17.91.48-26.65-.46-17.26-1.84-34.34.19-51.47.7-10,.29-12.76,3.73-16,13.3a56.18,56.18,0,0,0-2.37,25.88c.34,2.6-.34,5.34-.56,8h-4c-1.25-1-2.56-2.28-2.7-3.69-1.29-13.66-1.82-27.32,6-39.5a15.86,15.86,0,0,1,12.9-7.47c8.26-.38,16.45-2.13,24.77-1.53,8.53,0,17.12.64,25.57-.14,15.56-1.44,30.58,4.09,46,2.91,1.27-.1,2.14.49,2,2Z" transform="translate(-450.5 -147.26)"/><path class="cls-34" d="M1020.21,437.48c7.67,7.17,11.84,16.8,16.52,25.77,5.38,10.3,13.22,19.31,16.31,30.89a12.53,12.53,0,0,0,4.92,7.06v12.2c-7.41,1.07-7.08-6-9.93-9.69-.69-.9-.27-2.57-.85-3.77a35.29,35.29,0,0,0-8.76-16.47c-5-10.16-9.34-20.6-14.84-30.47-2.28-4.11-3-8.74-5-12.92A3.5,3.5,0,0,1,1020.21,437.48Z" transform="translate(-450.5 -147.26)"/><path class="cls-35" d="M613.11,505.27c-7.79.54-15.59,1-23.38,1.64-9.27.74-13.55,7-15.78,15.13a73,73,0,0,0-1.28,33.38h-5.39a6.16,6.16,0,0,1-1.86-4.65c.05-9-.92-18,.94-26.91,2.34-11.21,8.06-19.08,19.65-21.69,7.28-.62,14.65.05,21.86-1.56,4.54-.18,9.09-.06,13.64-.09h28c3,.63,7.19-1.65,8.31,3.49-12.23,1.29-24.51.19-36.76.6C618.37,504.7,615.65,503.93,613.11,505.27Z" transform="translate(-450.5 -147.26)"/><path class="cls-36" d="M1058,456.46c-1.94-5.47-5.78-7.18-11.51-7.24-8.48-.1-12.17-7.88-14.31-13.73-3.89-10.62-9.34-21.17-9.59-32.77-.2-9.59-3.78-18.34-5-27.6,3.19,7.24,7,13.87,7.42,22.52a58.5,58.5,0,0,0,4.25,19.92c1,2.27,2.85,4.64,2.68,6.83-.89,11.47,8.77,13.93,15.57,18.37,3,1.94,8.12-.25,10.52,4.21Z" transform="translate(-450.5 -147.26)"/><path class="cls-37" d="M1058,529.67v24.4c-4.5-1-8.48-1.12-9.67-7.81-1.11-6.26-3.18-12.5-4.21-18.91-.39-2.48-2-4.5-3.57-6.41-3-2.47-1.58-6.26-2.71-9.29a13.33,13.33,0,0,1-.62-4.65c.23-2.21,1.26-3.89,3.52-4.35s3.85.49,5.11,2.36c4.16,6.19,8.84,12.11,9.1,20.11,0,.87,1.13,1.33,1.64,2.07S1057.32,528.94,1058,529.67Z" transform="translate(-450.5 -147.26)"/><path class="cls-38" d="M1058,529.67l-1.24-1.37c-3.62-2.08-3.32-6.26-4.42-9.41-3.73-10.76-12.51-18.59-16.23-29.2-2.66-7.58-6.62-14.45-10.35-21.48a146.31,146.31,0,0,1-8.92-19.43c-.9-2.49-2.09-5-.48-7.71,1.1-1.19,2.36-1.71,3.91-.9l20.17,42.07a110.78,110.78,0,0,0,9.46,16.26c-.38,6.66,3.55,10.95,8.1,14.9Z" transform="translate(-450.5 -147.26)"/><path class="cls-39" d="M487.81,505.3c2.45,3.49,3.22,5.86,1.63,11.21-2.38,8-4.8,15.38-9.19,22.58-2.8,4.6,1.54,10.88-.59,16.33H468.87C474,538.27,481.71,522.09,487.81,505.3Z" transform="translate(-450.5 -147.26)"/><path class="cls-40" d="M543,555.42c.43-4,.56-8.08,1.35-12,2.68-13.51.1-26.84-1-40.23-.28-3.35-.22-6.73-.32-10.1h0c2-1.32-1.35-5.3,2.75-5.57a3.17,3.17,0,0,1,1.9,3.28c-.42,6.69,3.32,8.61,9.15,8.24,5.23,1,10.77.27,15.72,2.8.9,1.15.55,2.2-.27,3.2-4.61,3.68-10.44,3.73-15.76,5.22-3.29.92-5.11,2.82-5.45,5.89-1.14,10.45-3.3,21-1.34,31.43.83,4.45-.68,6.27-4,7.87Z" transform="translate(-450.5 -147.26)"/><path class="cls-41" d="M1047.18,555.42h-5.4c-5.86-3.92-8.33-9.11-7.24-16.39.71-4.74-1.87-9.34-3.28-13.73-2.09-6.48-1.45-14-6.44-19.46-1.28-6-2.91-12-1.26-18.3,3-1.78,5.24.23,5.92,2.44a124,124,0,0,0,9.22,22.26c.59,1.1,0,2.67.1,4,1.76,8.83,4.06,17.56,5,26.54C1044.34,547.18,1048.46,550.58,1047.18,555.42Z" transform="translate(-450.5 -147.26)"/><path class="cls-42" d="M516.05,529.66c-2.34,8.43-4.68,16.86-4,25.76h-5.39c-3.35-2.68-3.48-6.22-2.15-9.8,2.78-7.45,2.08-15.59,5.25-23.1,2-4.71-.42-10.39-.69-15.65,2.53-3.8,3.94-8,5.31-12.37,1.61-5.12,2.38-11.65,9.54-12.94,2.08,1.12,1.91,2.91,1.44,4.8-.18.68-.38,1.37-.59,2.05-4.84,10.78-8.16,21.86-6.64,33.89C518,524.94,517.87,527.52,516.05,529.66Z" transform="translate(-450.5 -147.26)"/><path class="cls-43" d="M1017.52,503.91q0-3.39,0-6.76c-1.71-3.77-2.78-7.53.13-11.24,5.08,2.32,5.46,7.26,5.82,11.72a136.13,136.13,0,0,0,4.32,26.47c.93,5.61,2.78,11.07,2.08,16.89-.24,2,1.06,3.58,2,5.31,1.68,3.09,2.21,6.35-.86,9.12h-5.39a12,12,0,0,1-4.69-10.11,51.41,51.41,0,0,0-2.08-15.8c-2-6.11,1.18-12.07-.44-18.18C1017.81,509.1,1015.83,506.57,1017.52,503.91Z" transform="translate(-450.5 -147.26)"/><path class="cls-44" d="M526.84,555.42c-5.93-9.34-5.18-13.34,3.55-20.44,2.23-1.81,3.73-1.88,5.43.66,4.49,6.72,3.69,14.4-2.24,19.78Z" transform="translate(-450.5 -147.26)"/><path class="cls-45" d="M510.68,506.63c4.65,11.29-1.52,21.87-2.17,32.81-.32,5.34-2.12,10.55-1.89,16h-9.44c-3.59-4.65,1.43-8.09,1.74-12.21.12-1.54,1.82-2.7,1.6-4.48.05-2,0-4.07,1.23-5.61,4.52-5.48,4.07-12,4.3-18.47.12-3,0-6.56,3.59-8.27Z" transform="translate(-450.5 -147.26)"/><path class="cls-46" d="M545.71,555.42c1.2-1.9,2.52-3.78,2-6.24-2.11-11,.59-22,.69-33,0-4.58,2.5-7,6.68-8.05,5.41-1.38,10.8-2.81,16.2-4.22l.59.81a3.41,3.41,0,0,1-.56,1.86,36,36,0,0,1-8,5.93,13.2,13.2,0,0,0-3.78,1.63c-5.28,4.92-5.64,11.58-6.33,18.11-.59,5.51,1,11,.6,16.49-.23,3.1-1.18,5.4-4.09,6.67Z" transform="translate(-450.5 -147.26)"/><path class="cls-47" d="M1017.52,503.91a27.69,27.69,0,0,1,2.72,14.29,27.3,27.3,0,0,0,2.48,13.7c1.59,3.36,2.32,6.52.33,10.18-2.67,4.94,2.55,8.71,2.56,13.34h-5.39c.13-9.2-5.11-17.74-4.15-26.8C1017,520.37,1014.52,512,1017.52,503.91Z" transform="translate(-450.5 -147.26)"/><path class="cls-48" d="M1027,505.23c5.19,6.08,4.14,14.32,7.2,21.13,4.17,9.26.46,20.6,7.6,29.06h-5.39a22.67,22.67,0,0,1-6.24-15.46,34.7,34.7,0,0,0-2.88-13c.26-6.89-3.87-13.33-2-20.38A3.53,3.53,0,0,1,1027,505.23Z" transform="translate(-450.5 -147.26)"/><path class="cls-49" d="M586.3,504.08c-14.52,3.94-18.07,15.43-18.9,28.43-.48,7.61-.11,15.28-.12,22.91h-4a5.05,5.05,0,0,1-1.7-2.83c-1-14,.07-27.8,5.19-41.05,1.21-3.13,4.39-4.4,6.35-6.82,3.24-4.12,7.54-2.88,11.7-2.31A3.41,3.41,0,0,1,586.3,504.08Z" transform="translate(-450.5 -147.26)"/><path class="cls-19" d="M979.78,555.42c-1.37-5.56,0-11.13.09-16.68.24-15.88-5.51-28.16-23.07-28.92-.91,0-1.77-1.2-2.65-1.84a10.74,10.74,0,0,1,8.11,0H965c5.37,2.49,11,4.53,14.82,9.49,3.34,12.44,2.85,25.42,5.4,38Z" transform="translate(-450.5 -147.26)"/><path class="cls-50" d="M559.2,510.69l4,0c2.53,1.53,2.33,4.16,1.26,5.95-6.88,11.57-2.54,23.87-2.68,35.87a4.74,4.74,0,0,1-1.27,2.94h-5.39c-2.84-7.47-.41-15.55-2.15-22.9C550.88,523.54,554.83,517.29,559.2,510.69Z" transform="translate(-450.5 -147.26)"/><path class="cls-26" d="M502.58,539.16l-5.4,16.26h-5.39c.08-5.59,3.65-9.92,5.39-14.91.59-5.61.48-11.4,4-16.27.11-3.22-.44-6.52,1.34-9.5a2.85,2.85,0,0,1,3.2-.65c2.92,4.09.68,8.54-.28,12.23C504.36,530.57,503.6,534.9,502.58,539.16Z" transform="translate(-450.5 -147.26)"/><path class="cls-51" d="M559.2,510.69c-.09.67,0,1.52-.3,2-8.56,11.23-3.17,23.6-2.82,35.52a16.34,16.34,0,0,1-.93,7.23h-5.4a41.28,41.28,0,0,0,1.6-16c-.57-8.13-.92-16.24,2.83-23.91C555.32,513.15,556.25,511,559.2,510.69Z" transform="translate(-450.5 -147.26)"/><path class="cls-52" d="M1047.18,555.42c-5.24-9.34-7.42-19.57-8.86-30-.42-3.11-1.3-6.16-2-9.23,1.75-1.31,2.44-.46,3.45,1.18a38.84,38.84,0,0,1,6.07,19.9,117.45,117.45,0,0,0,6.71,18.2Z" transform="translate(-450.5 -147.26)"/><path class="cls-53" d="M1028.32,527a11,11,0,0,1,2.67,6c1.07,7.67,2.26,15.31,5.4,22.47H1031l-5.4-31.18C1028.15,523.48,1027.21,526.25,1028.32,527Z" transform="translate(-450.5 -147.26)"/><path class="cls-54" d="M560.54,555.42v-2.7a62.69,62.69,0,0,0-.25-14.63c-1.52-9.65,1.41-18.32,4.7-26.94,1.06-2.75,4-4.11,6.32-5.9h0a1.83,1.83,0,0,1,2.78.08c-9.82,10.35-9.38,23.79-10.76,36.62-.48,4.44-.09,9-.1,13.47Z" transform="translate(-450.5 -147.26)"/><path class="cls-55" d="M1052.57,555.42c-5.81-4.43-6.55-11.2-8.08-17.62,1.43-6.66-2.92-12.49-2.71-19,5.84,2.53,4.67,8.07,5.38,12.77,1.3,8.62,2.11,17.45,10.8,22.47C1056.75,556.87,1054.32,554.77,1052.57,555.42Z" transform="translate(-450.5 -147.26)"/><path class="cls-12" d="M998.65,555.42c3.59-3,7.19-6.17,10.78,0Z" transform="translate(-450.5 -147.26)"/><path class="cls-56" d="M502.69,461.94l3.93-13.68c1.49-8.84.27-17.75.67-26.6.35-4.45,3.28-4.28,6.25-3.23,3.92,1.39,4.34-.95,4.1-3.7a26.12,26.12,0,0,0-4.32-11.85c-3.89-6.14-3.86-6.57-2.43-14-.52.73.74.48-.14.29-.2,1.17-.68,2.28-1.94,2.4-1,.09-1.55-.82-1.47-1.8.19-2.16-.75-4.45.65-6.49,8.89-11.2,13.81-25.14,24.15-35.35,1.91-.75,3.73-3.11,5.87-.54,1.38,1.67,1.35,3.44.64,5.61a45.56,45.56,0,0,1-7.47,14.5c-7.87,10-8,21.75-6.4,33.72,0,5.95,1.73,11.47,4,16.86.44,1,1.7,2.18,1.35,3-5.31,12.42,3.32,26.86-5.56,38.72-2.32,2.83-6.2,4.05-7.17,8.44-.69,3.06-4.16,2.94-6.8,2.44s-6.12-.42-6.67-4.33C503.71,464.81,503.86,463.2,502.69,461.94Z" transform="translate(-450.5 -147.26)"/><path class="cls-57" d="M548.32,216.46c-.87-3.46-.33-5.74,4-5.51,9.59.5,19.22-.11,28.78,1.22-2.18,4-6,2.36-9,2.16-8.85-.59-13.8,4.85-18.4,11-1.28,1.71-.4,3.95-.58,5.52,1.07-1.29-2-4.69,2.22-5.12,2.91,1.51,2.77,4.37,2.93,7,.35,5.55.16,11.12.16,16.67,0,11.41-2.18,22.58-3.79,33.82-.66,4.65-.07,9.38-.2,13.24,1.33-4-2.23-9.38,1.81-13.86,3.63,1.59,3.25,5,3.39,8,.36,7.31.15,14.63.13,21.94-.17,16.48-4,32.75-2.74,49.3-1,3-1.28,6.71-6,5.87a5.94,5.94,0,0,1-2.08-.87c-1.35-2.56-3.67-4.52-4.64-7.34s-1.3-5.16.79-8c2.57-3.47,1-8.13,2-12.17a41.73,41.73,0,0,0,2.42-5q.15-13.54.29-27.1a218.3,218.3,0,0,0-.07-36.16c.46-17-.7-33.92-.36-50.89A5.33,5.33,0,0,0,548.32,216.46Z" transform="translate(-450.5 -147.26)"/><path class="cls-39" d="M549.55,334.38l.07,5.44c-1.6,6.78-6.16,12.47-7,19.57a7.32,7.32,0,0,1-2.54,4.63c-7.08,5.63-7.65,14-9.5,21.86-.36,4.1,0,8.13-1.21,12.32s-.94,9,4.22,11.39a5.76,5.76,0,0,1,2.87,1.25c2.3,4.67.06,6.5-4.31,6.89a12.74,12.74,0,0,1-5.8-.68c-2.79-1.21-2.83-3.65-3-6.21-.17-3.32.79-6.72-.65-10-3-12.77-1.63-24.78,6.7-35.26a39.27,39.27,0,0,0,6.6-12.16c1.48-4.4.28-5.77-3.94-5.52C535.58,340.35,544,339.24,549.55,334.38Z" transform="translate(-450.5 -147.26)"/><path class="cls-29" d="M508,383.29v5.3c2-3.47,4.65-3.62,7.74-2.64,1.5.47,3.53.88,3.42,2.7-.17,2.85-2.21.91-3.52,1-3.87.21-4.81,3.57-1.82,8s6.27,8.83,7,14.42a60.7,60.7,0,0,1,.57,6.72c.06,2.83-.53,5.51-3.57,6.64s-4.47-1.1-5.83-3.24a5,5,0,0,0-3.92-2.29,5.18,5.18,0,0,1-.13-5.44c-.07-7.8.5-15.62-1.06-23.37A10.52,10.52,0,0,1,508,383.29Z" transform="translate(-450.5 -147.26)"/><path class="cls-58" d="M551,270.86q0,14.65.1,29.31c0,2.45,0,4.9-1.29,7.11q-.15-16.09-.28-32.18a6.4,6.4,0,0,1-.27-4.14A1,1,0,0,1,551,270.86Z" transform="translate(-450.5 -147.26)"/><path class="cls-57" d="M550.15,271.16c-.2,1.32-.4,2.63-.59,3.94q-.57-5.58-1.13-11.15.06-12.19.1-24.37c2.58.07,1.87,2.09,1.86,3.45C550.3,252.41,550.77,261.79,550.15,271.16Z" transform="translate(-450.5 -147.26)"/><path class="cls-16" d="M507.92,414.45c0,1.81.08,3.62.13,5.44-.84,9.44,1.4,19-1.43,28.37q0-8.1,0-16.21C507.1,426.18,505.47,420.16,507.92,414.45Z" transform="translate(-450.5 -147.26)"/><path class="cls-59" d="M704.77,212.41l6.52.07c-.27,4.08-3.34,4.86-6.47,5.39a69.1,69.1,0,0,1-10.07.59q-59.79.12-119.58,0c-4.08,0-8.65,1.12-11.89-2.84-.63-1.93.56-2.45,2-2.43,26.73.34,53.47-.89,80.19.64Z" transform="translate(-450.5 -147.26)"/><path class="cls-60" d="M645.51,213.79q-37,0-74,.06c-2.86,0-5.86-.71-8.51,1.09a85.09,85.09,0,0,1-9,10.74q-.36,6-.73,12h-.76c0-6.08,0-12.15,0-18.23,0-3.93,2.53-5.14,5.93-6,7.5-1.83,15.15.07,22.63-1.3q30.14.12,60.27.28C642.83,212.46,644.58,212,645.51,213.79Z" transform="translate(-450.5 -147.26)"/><path class="cls-61" d="M550.15,271.16q-.2-12.17-.38-24.33c0-2.49,0-5-1.24-7.25a168.31,168.31,0,0,1-.21-23.12,7,7,0,0,1,2,4.8q.3,24.8.68,49.6A4.35,4.35,0,0,0,550.15,271.16Z" transform="translate(-450.5 -147.26)"/><path class="cls-1" d="M470.59,187.6a7.37,7.37,0,0,1,5,5.5c.35,1.32-.56,2.44-1.82,2-2.7-.88-5.68-1.86-6.14-5.26C467.46,188.36,468.88,187.64,470.59,187.6Z" transform="translate(-450.5 -147.26)"/><path class="cls-1" d="M546.65,223.77v17.78l-.46,0V223.79Z" transform="translate(-450.5 -147.26)"/><path class="cls-10" d="M738.48,213.79c5.38.41,10.67,1.82,16.12,1.31,2.06-1.21,3.29-.19,4.24,1.59,1,4.23.5,8.53.51,12.79q.07,41.19,0,82.39c0,2.88.53,5.88-1.05,8.58a2.48,2.48,0,0,1-2.24.92c-2-1-2.47-2.55-2.5-4.83-.36-26.91-1.64-53.81-.47-80.72-1,20.18-.3,40.37,0,60.57.44,25.49.15,51,.1,76.47,0,2.66.61,5.59-1.8,7.75-5.37.95-5.16-3.16-5.29-6.32a208.57,208.57,0,0,1,.22-23.44c.29,18.67-2.19,40.38-3.22,62.16-1.3,27.32-2.47,54.63-2.77,82a5.44,5.44,0,0,1-.76,2.58,3.53,3.53,0,0,1-3.47,1.4c-3.14-1.24-3.29-4.23-3-6.67,2.09-19.45,0-39,1.48-58.37,1.38-17.88,2.49-35.77,2.37-53.61-.15-21-.36-42,.36-62.93.69-20.11-.74-40.22.88-60.31.93-11.59-1.1-23.09-2-34.61C735.93,219.08,736.15,216.27,738.48,213.79Z" transform="translate(-450.5 -147.26)"/><path class="cls-62" d="M738.48,213.79c0,11.69,1.31,23.28,2.58,34.88,1,9.51-1.38,18.86-1.21,28.32.41,22.92.11,45.8-.77,68.73-.4,10.54-.12,21.46.33,32.2.7,16.38-.2,32.88-1.44,49.25-.64,8.57-.59,17.09-.83,25.64-.32,11.24.63,22.51-1.16,33.74-.62,3.91-.91,8.12,1.16,11.93a4.8,4.8,0,0,1,4.17-1c1.68,3.42,1.68,3.42-4,4.88a18.66,18.66,0,0,1-2.36.12,5.89,5.89,0,0,1-3.49-1c-3.14-2.15-3.51-5.49-3.12-8.72,2.31-19.06-.26-38.3,1.62-57.24,4-39.91,1.25-79.87,2.75-119.77.31-8.31-.34-16.47-.26-24.69.15-14.82,2.25-29.61,1.14-44.45-.65-8.79-.82-17.63-2.17-26.36-.33-2.1-.79-4,1.65-5.18Z" transform="translate(-450.5 -147.26)"/><path class="cls-63" d="M733.09,215.14c2.8,23.78,2.54,47.54,1.66,71.48-1.24,34,.19,68.1-.46,102.14-.65,34.47-2.42,68.92-3.78,103.37a12.91,12.91,0,0,0,2.55,8.87c-1.75,2-3.88,1.58-6,1-2.61-2-3.18-4.46-2.86-7.79,1.71-17.87,1.42-35.85,2.43-53.77.74-13.18,1.17-26.43,2.07-39.59,1.61-23.44.22-46.91,1.64-70.33.38-6.33-4.4-11.92-2.72-18.45,1.45-9.4.83-18.88.77-28.32-.12-18,.72-36-.13-54-.17-3.63,1.22-8.27-3.45-10.61a7.49,7.49,0,0,1-3.69-2.74,2.71,2.71,0,0,1-.44-2.16c2.7-2,5.55-1.37,8.41-.45h1.35Z" transform="translate(-450.5 -147.26)"/><path class="cls-11" d="M757.35,215.83l-2.75-.73L750,209.62c11.78,1.68,22-2.69,32.54,2,5.81,2.57,12.82.56,19.29.77h5.48c2.66-1.19,5.41-.52,8.14-.44a21.8,21.8,0,0,0,7.85.22c2.32-.21,4.54,0,4.34,3.27-5.06,2.49-10.52,4.07-16,3.59-13.8-1.22-27.61-.17-41.4-.68a79.46,79.46,0,0,1-11.33-.73A2.74,2.74,0,0,1,757.35,215.83Z" transform="translate(-450.5 -147.26)"/><path class="cls-2" d="M661.34,158.88c2,.82,5.08.16,5.79,3.25.38,1.65-1.16,2.35-2.56,2.21-2.5-.26-4.87-1.21-5.6-3.89C658.6,159.05,660,158.83,661.34,158.88Z" transform="translate(-450.5 -147.26)"/><path class="cls-64" d="M1014.82,367l-4.05-5.42c-6-.11-5.89-5.92-8.48-9.21-2.91-6.87-4.9-14.13-8.86-20.55-2.93-15.73-6-31.44-10-46.93-1.64-6.33-5.6-11.12-12.66-12.17a3.89,3.89,0,0,1-3.51-2.64c-.08-3.13-1.36-6.5,1.91-8.89l1.14.06c6.87,3.29,13.86,6.36,20.56,9.95,3.83,2.06,7.21,5.37,7.36,10,.43,13.55,6.58,26.94,1.22,40.68-.62,1.58.3,3,1,4.48,2.48,5.28,4.65,10.41,4.78,16.65.09,4.31,4.76,7.78,5.91,12.47C1012.09,359.34,1014.52,362.82,1014.82,367Z" transform="translate(-450.5 -147.26)"/><path class="cls-65" d="M969.19,261.17l-.06,9.52c1.72,1.62,1.86,3.78,2,5.93.82,5.22,1.54,10.46.91,15.77-.31,2.69-.65,5.48-4.25,5.77-3.39-2.81-1.68-6.73-2.15-10.17,0-14.75-.12-29.49.06-44.22,0-2.72-.82-6.08,3.1-7.21l.57,9.74c0,1.36,0,2.72,0,4.07Z" transform="translate(-450.5 -147.26)"/><path class="cls-22" d="M773.53,512c3.81-6.52,9.74-3.06,14.51-2.51,8.73,1,17.51,2.39,25.93,5.22-11,.67-21.56-3.26-32.53-3.25A31.25,31.25,0,0,0,773.53,512Z" transform="translate(-450.5 -147.26)"/><path class="cls-3" d="M914.51,170.68c-1.19,3.25-2.54,6.64-6,6.68-3.81,0-4.73-3.58-5.17-6.74-.34-2.46,1.1-4.35,3.5-3.29S913.44,166.4,914.51,170.68Z" transform="translate(-450.5 -147.26)"/><path class="cls-3" d="M815.61,212.52l-8.31-.14c4.76-2.32,9.84-.91,14.76-1.31,4.49-1.88,9-2.18,13.47,0h6.75c6.27.63,12.78-1.47,18.85,1.59-1.51,1.7-3.54,1.72-5.56,1.77A239.36,239.36,0,0,1,815.61,212.52Z" transform="translate(-450.5 -147.26)"/><path class="cls-17" d="M835.53,211.07H822.06C826.55,207.49,831,206.66,835.53,211.07Z" transform="translate(-450.5 -147.26)"/><path class="cls-23" d="M680.51,514.75h12.14c2.57,1.68,5.62,1.23,8.42,1.91,6.4,1.56,13.36,1.6,17.9,7.83,2,2.76,5.58,2.44,8.72,2.46-2.24,1.87-4.29,4.09-6.79,5.49-2.14,1.21-3.79,2.4-5.58-2.14-3.37-8.49-11.25-12.31-20.4-12.76C690,517.3,685.08,516.9,680.51,514.75Z" transform="translate(-450.5 -147.26)"/><path class="cls-3" d="M729,213.79c-2.76,0-5.57-.25-8.08,1.32-8,4.71-20.59,4.67-25.79-.1,5.12-2.47,11,.17,16.13-2.53C717.21,212.88,723.28,211.24,729,213.79Z" transform="translate(-450.5 -147.26)"/><path class="cls-66" d="M959.55,210.8l4.07.48c-2.56,4.73-7.2,5-11.72,5.48-1.18-.06-2.36-.08-3.55-.06a70.85,70.85,0,0,1-12,.2c-3.18-.2-5.64-1.42-6.68-4.68l.7-.93c2-1.8,4.54-.45,6.77-1,3.92-.64,7.84-1.46,11.63.58Z" transform="translate(-450.5 -147.26)"/><path class="cls-17" d="M936.64,211.12l-6.28.17H896.59v-1.58h40C937.42,210.18,937.42,210.65,936.64,211.12Z" transform="translate(-450.5 -147.26)"/><path class="cls-11" d="M936.64,211.12v-1.4c4.19-1.15,8.46-3.13,12.12,1.19Z" transform="translate(-450.5 -147.26)"/><path class="cls-67" d="M929.66,212.22l6.87,1.25c-1.65,4.17-5.44,3.31-8.63,3.55-11.4.85-22.68-2.06-34.1-1.2-6.71,0-13.44.14-20.15-.1-2.18-.07-5.31.78-5.47-3.15l9.14-.36Z" transform="translate(-450.5 -147.26)"/><path class="cls-68" d="M759.05,216.52c5.79-2,11.89-2.28,17.81-2,16.93,1,33.85.58,50.78.31,9.88-2.44,19.94-1.18,29.85-.89,12,.35,24,.29,36,.47,5.84,0,11.67-.06,17.5,0,1.36,0,3.56-.9,3.85,1.35s-1.61,3-3.44,3.39a44,44,0,0,1-9.38.59c-26.25,0-52.49.11-78.73-.06-11.08.61-11.35,1.76-13,12.65-2.56,16.9-.79,33.57-.39,50.44.46,19.2.07,38.72-3.69,57.87-2.39,12.16-2,24.72-3.86,36.94-1.79,11.53-1.12,23.35-4.41,34.69-2.74,9.41-2.66,19.26-2.87,28.86-.35,15.86-3.5,31.31-5,47-.22,2.21-1,4.54,1.53,6,1,.32,2.14.44,3.18.78,2.15.77,4.49,1,6.44,2.36.86,1,1.43,2,.23,3.11-6.92,1.59-13.94.36-20.9.71-3.12-1.08-6.59.51-9.62-1.26-3.37-.77-6.79,1.19-10.15-.19-3.14-1.48-2.69-4.42-2.7-7.05,0-55.46-.45-110.92.12-166.37.37-36.27.84-72.53,0-108.8C758.17,217.18,758.75,216.85,759.05,216.52Z" transform="translate(-450.5 -147.26)"/><path class="cls-34" d="M759.05,216.52c.28,4.5.8,9,.81,13.5q.23,130.8.36,261.62c0,2.69.35,5.39.54,8.08l-3.47.12-1-.88c-1.49-2.51-.92-5.28-.92-7.95q-.06-80.24,0-160.47c0-3.3-.79-6.85,1.84-9.69q.07-52.5.16-105Z" transform="translate(-450.5 -147.26)"/><path class="cls-19" d="M962.26,508h-8.11c-33.25.73-66.59-2-99.74,2.7-10.76,0-21.52-.27-32.26.08-7.09.23-13.55-2.66-20.59-2.92-38.11-1.41-76.2,1.2-114.3.13-2-1.18-4.24-1.24-6.49-1.34-22.54-.95-45.09-1.85-67.66-1.36,6-2.6,12.31-1.11,18.48-1.3,8.67-.26,17.36-.08,26-.08,3.14-2.67,6.27-2.81,9.39,0,16,1.74,32,3.6,48.08,2.11a68.2,68.2,0,0,1,8-.7c19,.49,38-.08,56.94-1.05,12.41-.64,25,1.28,37.44,2.8,11.43,1.39,22.83.82,34.24.72s22.71-1,34.07-1.12c22.42-.19,44.84-.07,67.26-.05C956.19,506.63,959.38,506.28,962.26,508Z" transform="translate(-450.5 -147.26)"/><path class="cls-54" d="M770.91,499.91l9.29.08c12,2.13,23.85-1.15,35.79-.87,5.71.55,10.86-1.72,16.13-3.32,9.53,2.23,19.14,1.94,28.78.89,13.7-.32,27.1,4.05,40.87,2.47,10.65,0,21.29-.11,31.93.09a99.43,99.43,0,0,0,16.62,1.31c2.37,0,5-.48,6.62,2.1-12.82,2.84-25.8,3-38.8,2.16-24.22-1.59-48.45-.92-72.68-.39-5.58.12-11.18-.29-16.76-.51q-26.24-1-52.46-2C774.22,501.83,772.13,502.09,770.91,499.91Z" transform="translate(-450.5 -147.26)"/><path class="cls-69" d="M978.42,460.53c2.94-3.33,5.25-2.4,6.15,1.45.71,3,.43,6.26.58,9.41-2.72,1.44-2.5,3.81-2.11,6.36.71,4.6,1.26,9.23,1.91,13.84.72,5.14-1.39,9.07-5.08,12.35-4.32-6.76-1.5-14.13-1.7-21.23,0-1.95.84-3.89.84-5.91-.24-4.8-1.54-9.49-1.54-14.33A4.58,4.58,0,0,1,978.42,460.53Z" transform="translate(-450.5 -147.26)"/><path class="cls-24" d="M667,503.92l-9.39,0c-2.54-1.54-5.39-1.21-8.16-1.37a2.22,2.22,0,0,1,.32-2.47c2.53-2.5,5.82-2.08,8.88-2.13,11.42-.17,22.87.37,34.25-.16,10.53-.49,20.83.92,31.22,1.71a18.8,18.8,0,0,1,3.54,1.68l5.38-.15,2.71.32c-.59,3.35-3.25,1.34-4.91,1.91-15.46,0-30.92,0-46.37,0-2.2,0-4.49-.57-6.59.62Z" transform="translate(-450.5 -147.26)"/><path class="cls-70" d="M981.11,475.45c-.8,9.48-1.77,18.95-1.25,28.49-5.36,3.95-10.12,1.12-14.91-1.34a4.77,4.77,0,0,1-.82-1.64c1-6.87,1-6.93,7.47-4.5a2.4,2.4,0,0,0,2.91-.53,9,9,0,0,0,1.19-2.45,31.71,31.71,0,0,0-.68-15.66c-.07-3-1.39-6.1.89-8.84C982.23,467.38,979.12,473.49,981.11,475.45Z" transform="translate(-450.5 -147.26)"/><path class="cls-54" d="M677.9,503.88c2.87-1.69,6-1.24,9.13-1.25q22.35,0,44.71,0c.92.42.92.83,0,1.25Z" transform="translate(-450.5 -147.26)"/><path class="cls-71" d="M965.31,501.5c-.13.36-.25.73-.36,1.1l-8,.06c-7.68-1-15.5.93-23.11-1.24a3.18,3.18,0,0,1,3.12-2c5.57.27,10.81-1.5,16.18-2.43a18.56,18.56,0,0,1,4.37.78,56.94,56.94,0,0,1,6.76,2.12A4.23,4.23,0,0,1,965.31,501.5Z" transform="translate(-450.5 -147.26)"/><path class="cls-19" d="M979.77,517.46C974.82,514.31,969.33,512,965,508,971.19,509.08,977.21,510.54,979.77,517.46Z" transform="translate(-450.5 -147.26)"/><path class="cls-54" d="M757.29,499.84l-3.77,1.45c-5.1,1.34-10.17,3.95-15.36.3,4.56-.62,6.91-6.42,12.22-5.3a7.65,7.65,0,0,1,7,3.47Z" transform="translate(-450.5 -147.26)"/><path class="cls-54" d="M738.48,501.39c5,2.64,10-.4,15-.1-6.83,4.54-14.5,1.9-21.78,2.58v-1.25l4-1.3,1.38-.25C737.75,500.5,738.19,500.64,738.48,501.39Z" transform="translate(-450.5 -147.26)"/><path class="cls-58" d="M951.55,213.62c3.75-2.21,8.29-.3,12.07-2.34l5.26-.16q0,12.72-.1,25.44c-1.73,14.27-.67,28.62-1,42.93-.08,2.91-.19,5.82-.29,8.73-3.15-.11-1.33-2.46-1.73-3.82-.17,9.21,3.13,18.44-.32,27.64.06.89,1.13.1.23.09-.13,0-.06-.21,0-.67.19-1.76-.17-4,2.89-2.68,1.72,2.14,1,4.81,1.61,7.2.41,3.58,1.2,7.11,1.51,10.7,1.06,5.49.39,11.33,3.33,16.43.59,2.5,2.35,4.58,2.5,7.23-1.8,5.06-4.58,5.63-8.31,1.85-3-3-1.09-6.83-1.53-10-.22,1.59.77,4.2-2,4.75-2.55.51-3.32-1.85-4.11-3.68-1-2.26-2.73-4.14-3.21-6.66a34.62,34.62,0,0,1,.49-4.54c1.83-6.53,1.42-13.21,1.46-19.86-.73-14.32,2.33-28.52,1.32-42.85,0-5.62,0-11.24,0-16.85-.18-7.3,2-14.46,1.35-21.81-.24-2.65-.21-5.31-1.19-7.82a8.52,8.52,0,0,0-2.25-3.16C957.18,217.24,952.47,217.92,951.55,213.62Z" transform="translate(-450.5 -147.26)"/><path class="cls-72" d="M893.27,215l-65.63-.16c-3.78-2-8.3-.15-12-2.36l45.52.14c2.37,1.67,4.71.82,7-.09,8.35,2.73,17,0,25.42,1.44.43.4.53.68.29.85A1,1,0,0,1,893.27,215Z" transform="translate(-450.5 -147.26)"/><path class="cls-35" d="M502.69,461.94c1.58.64,2,2.32,3.13,3.38,3.5,3.39,8.14,2.94,10.85-1,1.59-2.33,4-3.57,6.12-5.13a1.33,1.33,0,0,1,1.88,0c2,5.92-2.43,10.17-5.35,13.33a23.81,23.81,0,0,0-6.8,16.83c-1.34,3.76-3.41,7.2-4.6,11-.78,2.54-2.24,4.39-5.35,3.57l-5,9.25c-3.33-2.7-4.12-5.9-3.63-9.87.28-2.26,2.27-5.53-2.23-6.2A194.75,194.75,0,0,0,502.69,461.94Z" transform="translate(-450.5 -147.26)"/><path class="cls-42" d="M978.42,460.53c0,.45,0,.9,0,1.36-.58,1.64-.92,3.42-2.74,4.25a5.69,5.69,0,0,1-2.13.2c-4.89-2.68-7.76-6.62-7.61-12.42a13,13,0,0,0-3.32-8.93,11.42,11.42,0,0,1-.95-1.88c-.48-1.61-1.47-3.15-.81-5a21.42,21.42,0,0,0,3-14.39c3.75-8.35,2.33-17.07,1.81-25.73a11.26,11.26,0,0,1,.1-2.09c2.24-5.9,2.5-11.61-.67-17.42a8.44,8.44,0,0,1,.4-9c2.68-1.43,4.41-.05,5.19,2.29,1.36,4.07,4,7.49,5.49,11.44.3,4.19.39,8.33-1.34,12.36-1.2,2.81-.5,5.93.66,8.37a21.05,21.05,0,0,1,1.81,12.92c-1.27,7,2.06,11.94,5.67,17,1.41,2,3.23,3.82,2.42,6.62A5.08,5.08,0,0,1,981,444c-3.18,0-3.15,2.36-3.87,4.29-2.14.4-6.15.18-2.4,3.68C977.39,454.52,975,458.72,978.42,460.53Z" transform="translate(-450.5 -147.26)"/><path class="cls-38" d="M977.08,448.32l-5.78-4.52c3.85-2.86,8.34-2.73,12.54-3.62,3.48-2.83,6.39.12,8.71,1.63a78.05,78.05,0,0,1,9,6.53,9.25,9.25,0,0,1,1.53,1.32c1.19,3.33,4.15,4.76,6.76,6.68s4.05,5.17,5.49,8.15c.86,7.26,4.58,14.22,2.24,21.81q0,5.42,0,10.85c-3.63-5.33-4.63-11.51-5.3-17.68-.85-7.89-2.14-15.21-11.17-18a8.78,8.78,0,0,1-4.79-4.5C991,447.54,988.09,446.25,977.08,448.32Z" transform="translate(-450.5 -147.26)"/><path class="cls-73" d="M1004.06,352l6.71,9.52c2.84,14.91.06,30.14,3.22,45.2,2.14,10.2,2.36,20.82,6.22,30.72,0,.9,0,1.8,0,2.69l-2.46,1.36c-1.39,0-2.93-.39-3.44-1.65-4.18-10.46-10.13-20.54-7.38-32.59-1.7-16.32.19-33.06-5.81-48.87a5.71,5.71,0,0,1,0-4.48A3.36,3.36,0,0,1,1004.06,352Z" transform="translate(-450.5 -147.26)"/><path class="cls-27" d="M545.74,487.66l-2.73,5.4a42.69,42.69,0,0,0-1.18-5.68c-1.16-3.38-1.94-.19-2.88.28-5.62-.72-7.73-3-5.86-7.11,3.19-7,5.41-14.5,9.33-21.19a4.92,4.92,0,0,1,2.48-3.09c7.37-3.08,8.35-11.3,13.19-16.44,1.74-1.85,1-4.71-.88-6.79-3.85-1.6-5.78-4.25-4.18-8.48,1.32-3.51-2.09-6.44-1-9.86.65-2.86,2.5-4.88,4.6-6.72a4.6,4.6,0,0,1,1.1-.78c2.93-1.2,5.2-5.62,8.83-3.1,3.93,2.74,7.58,6.32,6.86,11.92-.14,1.05.32,2.06-.11,3.05,0,3.43.08,6.86-.07,10.28-2.81,4.87-6,9.55-7.11,13.76.14-.73.33-3.23,3.14-3.29,2.41,0,2.53,2.11,2.65,4a26.91,26.91,0,0,1-1.36,10.39c-3.44,7.41-9.67,13.85-7.38,23.22.4,1.67-.56,3.9-1.53,5.67-4.14,2.58-4.72-.54-5.56-3.46-.73-2.58,1-5.84-2.08-7.74-4.31.19-4.61,3.71-5.68,6.68s.26,6.11-1.79,8.7Z" transform="translate(-450.5 -147.26)"/><path class="cls-74" d="M544.36,459.17c-2.54,6.23-4.85,12.57-7.7,18.66-2,4.17-1.65,7.3,2.29,9.83-.42,3.23-2.07,3.66-4.59,2-5.09-3.35-7.65-1.74-8.69,4.08-.45,2.57-1.89,5-2.87,7.46-2.1-1.41-1.49-3.52-1.39-5.49.1-3.2-.21-6.45,1.39-9.42h0c4.2-5.88,7.08-12.51,10.44-18.87,1.73-2.68,3.33-5.42,5.27-8,1.56-2,3-3.83,5.8-2.19A1.31,1.31,0,0,1,544.36,459.17Z" transform="translate(-450.5 -147.26)"/><path class="cls-75" d="M522.79,495.77c0,1.81,0,3.62,0,5.43-.52,5.81-.76,11.67-1.63,17.43-.62,4-.4,8.78-5.12,11,0-2.7,0-5.41,0-8.12,1.53-2,.86-4.12.84-6.34C516.82,508.16,516.36,500.87,522.79,495.77Z" transform="translate(-450.5 -147.26)"/><path class="cls-39" d="M502.57,503.91c4.66-3.9,4.47-10.45,8.09-14.91,1.58-2.7,0-5.81,1.12-8.57,1.43-3.41,2.93-6.54,7.26-3.18.66,1,1,2.33.24,3.09-4.94,4.78-3.88,11.41-5.57,17.18a67.54,67.54,0,0,1-2.58,6.44c-4.77,2.06-3.45,7.45-5.86,10.79h-2.71C500.7,511.13,502.76,507.52,502.57,503.91Z" transform="translate(-450.5 -147.26)"/><path class="cls-39" d="M501.22,524.24c.53,5.89-2.19,11-4,16.27-1-4.32-1.95-8.69-6-12.06C496,529.77,498,525.66,501.22,524.24Z" transform="translate(-450.5 -147.26)"/><path class="cls-24" d="M1049.86,498.5a22.66,22.66,0,0,1-9.46-16.26C1045.35,486.6,1047.92,492.37,1049.86,498.5Z" transform="translate(-450.5 -147.26)"/><path class="cls-76" d="M621.13,502.38l-13.42.35a93.25,93.25,0,0,1-20.18.1,2.3,2.3,0,0,1,0-2.46,4.41,4.41,0,0,1,3.41-1.94c10-.24,20.06-2.41,29.83,1.51A2.08,2.08,0,0,1,621.13,502.38Z" transform="translate(-450.5 -147.26)"/><path class="cls-77" d="M621.13,502.38c0-.4,0-.79.07-1.18a4.47,4.47,0,0,1,3.56-2.71,77,77,0,0,1,21.22,0,4.35,4.35,0,0,1,3.49,2.77c0,.41,0,.83,0,1.24Z" transform="translate(-450.5 -147.26)"/><path class="cls-49" d="M587.5,502.55l20.21.18c-7,2.35-14.3.58-21.41,1.35l-.2-.25C585.9,502.67,586.26,502.13,587.5,502.55Z" transform="translate(-450.5 -147.26)"/><path class="cls-55" d="M1028.26,467.32c9.75,17.49,18.14,35.64,26.26,53.94,1,2.28,2.12,4.49,2.2,7-2.29-.26-4.72-.61-4.65-3.64.18-7.75-6.37-12.12-9-18.46a1.54,1.54,0,0,0-2.21-.85c-2.42,1.51-1,3.49-.46,5.34-1.74,1.25-3.08.47-3.68-1.16-3.4-9.21-8.78-17.65-10.64-27.47-.91-3.2-1.1-6.57-3.43-9.37a3.83,3.83,0,0,1,.21-5.53A3.49,3.49,0,0,1,1028.26,467.32Z" transform="translate(-450.5 -147.26)"/><path class="cls-78" d="M1028.31,480.86c1.12,11.15,6.78,20.42,12.12,29.83l1.35,8.14c2,6.17,6,12,2.71,19-3-5.46-1.31-12.25-5.15-17.54-1-1.36-1.18-3.32-3-4.12,1.09-6.56-4.11-10.9-6-16.41-1.43-4.13-1.31-9.5-6.06-12.1l-.95-.69c-1.4-2.62-1.52-5.2.28-7.71C1025.77,478,1027.29,478.7,1028.31,480.86Z" transform="translate(-450.5 -147.26)"/><path class="cls-79" d="M1028.31,480.86l-4.06-1.35c-4.36-3.67-5.8-9.18-8.46-13.88s-3.84-10.34-6.08-15.4-2.5-10.29-7.25-14.53c-8.63-7.71-9.33-30-2.38-39.31,1.07-1.43,1.86-3.27,4.1-2.65,1.89.51,2,2.39,2.92,3.8,2,3.21-.5,7.27,2.39,10.07-.92,12.22,5,22.75,8.28,33.92q5.25,12.89,10.49,25.79c-3.81.74-4.5,2.27-2.62,6C1026.77,475.59,1031,477.17,1028.31,480.86Z" transform="translate(-450.5 -147.26)"/><path class="cls-80" d="M553.42,467.21c1.51-1.48,2.48-4.51,5-3.6,2.09.77,1,3.57,1.1,5.48.34,4.86-.73,9.82,1,14.6l.78.54a14.31,14.31,0,0,1,1.21,7.49c-.54,5.94,2.43,7.48,7.53,7,2.27-.24,4.44-.27,5.69,2.17.11,2.29-1.08,2.62-2.92,1.95l-17.59-.31c-6.9-3.57-9.06-8.1-8.06-16.95C548.08,479.05,549.32,472.63,553.42,467.21Z" transform="translate(-450.5 -147.26)"/><path class="cls-81" d="M548.27,486c-.6,6.7,3.83,11.29,6.86,16.47-9.57-1.47-9.57-1.47-9.39-14.85h0C546.42,486.86,546.81,485.62,548.27,486Z" transform="translate(-450.5 -147.26)"/><path class="cls-82" d="M572.72,502.82l2.55-1.51c4.75-4,7.63-4,12.25.08,0,.39,0,.77,0,1.16l-1.4,1.28c-4,.17-8.16-.3-12,1.5l-2.78-.08c0-.44,0-.89,0-1.33Z" transform="translate(-450.5 -147.26)"/><path class="cls-76" d="M1027,505.23l0,1.4c-2.66.48-3.19-1.9-3.27-3.32-.38-6.5-2.91-12.32-5.16-18.22-.91-2.36-1.33-4.31,1.08-5.89,5.84.42,2.46,6,4.66,8.44h0C1025.58,493.43,1027.33,499.17,1027,505.23Z" transform="translate(-450.5 -147.26)"/><path class="cls-45" d="M509.31,503.91l1.36-6.78A117.07,117.07,0,0,1,523.52,474c4.43-6.13,7.18-13.75,8.6-21.46.37-2,1.08-3.56,2.5-4.44,3.74-2.33,4.19-6.06,4.77-9.82a18.24,18.24,0,0,1,.5-3c3.37-3.67,5.82-8,8.37-12.21,1.07-1.78,1.5-4.66,4.77-3.21,1.56,9.32,1.17,18.43-3.44,26.91-2.47,4.54-3.47,10.06-9.91,11.79-3.08.82-3.21,5.22-4,8.33-3,2.53-1.32,7.07-4,9.65-2.28,2.18-3.58,5.76-7.55,5.71-5.2,3.88-6.72,9.77-8.29,15.58-.94,3.45-1.31,7.15-5.17,8.83h0C509.5,506.06,508.57,505.4,509.31,503.91Z" transform="translate(-450.5 -147.26)"/><path class="cls-83" d="M522.79,495.77c-3.31,6.66-5.66,13.54-4.63,21.16a4.8,4.8,0,0,1-2.1,4.61c-1.74-12.52,1.48-24.09,6.74-35.25C522.8,489.45,522.79,492.61,522.79,495.77Z" transform="translate(-450.5 -147.26)"/><path class="cls-83" d="M524.14,482.22c6.22-3.06,7.32-9.86,10.78-14.94.45.31.61.62.46.93s-.29.47-.44.47c-.24,8.53-5.91,13.27-12.14,17.61C523.25,484.93,523.69,483.57,524.14,482.22Z" transform="translate(-450.5 -147.26)"/><path class="cls-84" d="M1020.21,479.51c-1.47,4,.41,7.43,1.69,11.05,1.86,5.29,3.38,10.71,5.05,16.07-1.7,6.92,4.11,13.33,1.37,20.32l-2.72-2.71a77.4,77.4,0,0,1-3.77-21.14,42.42,42.42,0,0,0-4.31-16.81c-1.91-7.12-3.86-14.24-4.06-21.69,4.9,2,5.34,7,7.38,11C1020.9,476.92,1021.2,478.32,1020.21,479.51Z" transform="translate(-450.5 -147.26)"/><path class="cls-85" d="M509.31,503.91c.45.9.89,1.8,1.34,2.71a12.92,12.92,0,0,0-2.19,7.59c.71,9-2.86,16.89-5.88,24.95-1-8.35,2.81-16.16,2.69-24.41C504,510.16,504.49,506.21,509.31,503.91Z" transform="translate(-450.5 -147.26)"/><path class="cls-82" d="M571.31,505.25c-8.94,9.29-9.82,21-9.71,33,0,4.87,1.16,9.8-1.06,14.49a67.63,67.63,0,0,1,2.69-42.06A16,16,0,0,1,571.31,505.25Z" transform="translate(-450.5 -147.26)"/><path class="cls-14" d="M524.15,459.17h-1.36A71.36,71.36,0,0,0,525.44,435c-.45-8.54-.47-17-2.53-25.37-.68-2.77-.12-5.85-.13-8.79,3.05,4.51-.82,10.91,4.05,14.91,1.11,1.08,2.45.62,3.76.71,4.42.28,6.63,2.61,5.35,7.12-1.06,3.77-.91,6.9,2.16,9.8,2,1.88,2,4.48.31,6.74A65,65,0,0,0,528.74,457C528,459,526.66,460.49,524.15,459.17Z" transform="translate(-450.5 -147.26)"/><path class="cls-68" d="M587.52,501.39l-12.25-.08-6.6-.35c-1.16-.87-2.51-1.58-2.73-3.26a69.68,69.68,0,0,0,.53-16.75c-.9-8.35,3.4-14.3,9.22-18.29,6.81-4.68,10.72-10.92,13.29-18.1,4.38-12.22,6.07-24.6,2.93-37.77a77.28,77.28,0,0,1-1.06-30.14c.45-2.8.87-5.62,1.28-8.43.79-5.43-.86-9.19-6.19-11-3.45-2.6-7.27-1.64-11-1.14a4.65,4.65,0,0,1-1.93-.05,9.82,9.82,0,0,0-6.29-.32c-1.46.73-2.85,1.66-4.58,1.61-2.33.49-4.52.63-5.44-2.27a290.52,290.52,0,0,1-.36-42.24,254.27,254.27,0,0,0-.86-30.36c-1.91-10.64-1-21.33-.5-32,.11-8.27.28-16.55-.92-24.78a4.31,4.31,0,0,0,.12-1.32c-1.58-7.45,1.91-10.06,8.83-9.42l132.19.07,25.79.1,0,0c0,21.57,1.81,43.14,0,64.7A700.4,700.4,0,0,0,719.26,361c.15,4.91.42,9.68-.81,14.52-2,7.69.58,15.53-.3,23.27-2.33,20.38-.54,41-5,61.36-2.18,9.81-2.62,20.07-5.05,29.94-.95,3.84.69,6.09,4.63,6.57,2.4.18,4.83-.22,7.2.44s5.21.38,5.09,4l-75.5.11-28.27-.08Z" transform="translate(-450.5 -147.26)"/><path class="cls-75" d="M526.69,384.5c4.72-3.88,0-10.85,3.63-14,4.1-3.56,8.32-7.29,8.7-12.22.63-8.28,7.83-11.94,10.6-18.49a36.44,36.44,0,0,1-2.29,12.31c-1,2.41-1.14,4.2,1.28,5.64a1.88,1.88,0,0,1,.15,1.57c-.37,1.13.34,2.23.07,3.35-.58,1.6-.23,3.62-2.11,4.6-3,1-6.12,1.79-6.28,5.83a14.59,14.59,0,0,0,.11,2.64c.16,5-2.55,8.15-6.55,10.68-2.8,1.78-4.92,1.38-6.92-1.05Z" transform="translate(-450.5 -147.26)"/><path class="cls-57" d="M537.57,375.38,536,374.13c1.58-4.65,6.42-4.58,9.7-6.76,1.48-.5,2.6-1.86,4.33-1.74l1.18,0c5.3,5,2.64,10-.07,15-5,2.59-6.94-3.4-10.84-3.89A14.23,14.23,0,0,0,537.57,375.38Z" transform="translate(-450.5 -147.26)"/><path class="cls-86" d="M556.31,312.83q.69,21.68,1.39,43.35c2.91,3.59,1.74,6.27-1.83,8.42q-1.46-.28-.69-1.56l-.09-43.68A13.25,13.25,0,0,1,556.31,312.83Z" transform="translate(-450.5 -147.26)"/><path class="cls-81" d="M555,250.46q.25,16,.5,32v24.15l-1.71,0c0-10.48-.23-21,.07-31.45C554.05,267,552.4,258.6,555,250.46Z" transform="translate(-450.5 -147.26)"/><path class="cls-87" d="M555.18,363l.15,1.62c1.46.86,1.71,2.25,1.65,3.78-.54,4.37-1.88,8.57-2.61,12.91-1,2.31-1,5.78-5.12,4.6-1.47-1.84-1.48-3.63.19-5.35,1.64-4.86,3.35-9.71,1.73-14.94C553.56,366.41,553.81,363.86,555.18,363Z" transform="translate(-450.5 -147.26)"/><path class="cls-15" d="M550,365.63l-2.66,2.18c-1.17-.38-2.9-.54-.86-2.19q.93-2.07,1.88-4.13a1.76,1.76,0,0,1,0-2.52,3.12,3.12,0,0,0,.3-1.2C550.76,360.09,549.32,363,550,365.63Z" transform="translate(-450.5 -147.26)"/><path class="cls-12" d="M524.15,459.17c4.31-6.18,6.41-13.7,11.6-19.39,1.73-1.9,1.06-4-1.43-4.67-4.6-1.29-4.81-4.34-3.06-7.76,3-5.73,1.84-9.56-4.43-11.56,2.47-1.74,8.08,2.67,8-4.11a4.11,4.11,0,0,1-.21-3.75c.78-2.7,2.89-4.36,4.77-6.2a4.56,4.56,0,0,1,3.75-1.1c5.19,1.32,7.25-.11,8.58-6.45.83-3.95,1.16-8.05,6-9.27a3.56,3.56,0,0,1,2,.61c3.18,6.89-.59,13.33-1.25,20-3.09,4-7.85,7.69-8.19,12.57-.53,7.53-5.43,12.24-8.58,18.09l0,2.68c-7.69,10-12.48,21.29-16,33.34-.85,2.93-1.56,7.62-6.93,6-3.9-1-5.66,1-6.43,4.55-.47,2.11-1.1,4.2-1.66,6.3-.47-7.15.71-13.41,6.5-18.69A22.37,22.37,0,0,0,524.15,459.17Z" transform="translate(-450.5 -147.26)"/><path class="cls-51" d="M543.13,402.45l-2.4,1.2c-2.79.73-6.24.92-4.38,5.44l-1.55,2.59-2.53.09c-4.59-2.59-5.8-9.93-2.5-15.77,1.23-2.18,2.27-4.48,3.7-6.55,5.95-2.51,10.29-1.17,15.63,4.81C549.76,398.94,548.17,402,543.13,402.45Z" transform="translate(-450.5 -147.26)"/><path class="cls-75" d="M534.86,390.16c.73,2.6-.11,4.45-2.08,6.4-4.77,4.75-4.6,10-.51,15.21-5.3.85-4.85-3.4-5.2-6.36-.83-6.94,1.4-14-.38-20.9l.34.23a11.82,11.82,0,0,0,6,2.48A2.74,2.74,0,0,1,534.86,390.16Z" transform="translate(-450.5 -147.26)"/><path class="cls-7" d="M750.61,380.54c0-26.88.46-53.77-.18-80.64-.36-14.87-1.06-29.74-1.28-44.64-.13-9.3,1.38-18.44,1.58-27.69,0-2.18.17-5.36,3.06-5.11s2.15,3.53,2.15,5.6q.12,46.43.08,92.84c.85,1.21.65,2.6.65,3.94-.06,40.89.14,81.79-.09,122.68-3.33,2.29-3.39-.81-4-2.59-1.91-5.57-1.43-11.51-2.61-17.2.73-12.59-4-24.82-2.65-37.46C747.69,386.76,747,382.91,750.61,380.54Z" transform="translate(-450.5 -147.26)"/><path class="cls-88" d="M750.61,380.54c-1,15.85,1.84,31.6,1.35,47.45.06,5.34-.09,10.65,1.17,15.95.51,2.19,1.08,4.89-.69,7.09a2.43,2.43,0,0,1-2.14.29c-4.77-5.71-4.67-12.63-4.66-19.48,0-2.67.1-5.35.12-6.48a377.35,377.35,0,0,1-1.56,46.84c-.73,7.22-2.82,14.3-2.51,21.7.08,1.83-.65,3.66-3.21,3.23.88-53.95,1.68-107.91,7.51-161.71a35.35,35.35,0,0,1,2.91,18.39A89.68,89.68,0,0,0,750.61,380.54Z" transform="translate(-450.5 -147.26)"/><path class="cls-89" d="M738.48,497.13c2.61-7.81,1.62-16,2.43-24,1.64-16.09,2-32.3,3-48.46a34.29,34.29,0,0,1,2.54-11.3q2.07,18.85,4.16,37.7l.23.91c2.51,10.54,1.45,21.34,2.2,32a15.26,15.26,0,0,1,.23-3.75c.89-5.77.67-11.57.68-17.36.83-4.83-1.75-10.15,2-14.55q0-63.69,0-127.39l1.19,0q.06,89.46.14,178.91l-6.63-1.1c-6.05-.32-3.43-5.51-4.75-8.31-.42,3.26.09,7.28-4.8,8.14h-4Z" transform="translate(-450.5 -147.26)"/><path class="cls-90" d="M741.17,498.49c2.42-6,.85-13,5.23-19.76,3.76,6.78,2.71,13.69,4.32,19.93l-12.24,2.73-1.33-.32C738.28,499.88,740.47,500.35,741.17,498.49Z" transform="translate(-450.5 -147.26)"/><path class="cls-91" d="M712.87,499.84h-1.35c-12.59,0-12.65,0-6.85-11.48,1.91-3.76,2.15-7.95,2.47-11.82,1.06-12.51,4.2-24.66,5.63-37.13,1.31-11.46.22-23,2.3-34.32a45.44,45.44,0,0,0,.47-8.09c0-22.18.35-44.37-.06-66.55-.54-28.89,3.83-57.58,2.91-86.48-.22-6.78-1.31-13.45-1.5-20.21-.11-3.65.64-6.71,4-8.61H725c4.82,8,3.26,17.12,3.7,25.73.29,5.76-.42,11.69-.32,17.54.58,36.85-1.3,73.64-3.09,110.4-1,19.95-1.91,39.92-3,59.87-1.17,21.44-.94,43-5.87,64.09C715.78,495.47,715.17,498,712.87,499.84Z" transform="translate(-450.5 -147.26)"/><path class="cls-92" d="M712.87,499.84c0-11.56,3.06-22.73,4.38-34.12,1.22-10.56,1.54-21.19,1.93-31.7.59-15.76,1.73-31.51,1.9-47.31.12-11.24,1.17-22.49,2.31-33.69.8-7.88-.45-15.66-.12-23.56.75-17.78,2.26-35.55,1.84-53.41-.48-20.29-.11-40.6-.11-60.91,3.28.34,4.29,2.76,5.07,5.48a47.69,47.69,0,0,1,1.69,13.3c-.06,25.83,0,51.65,0,77.48-2,8.89-.1,17.87-.4,26.83-.83,25.07-2,50.15-3,75.22-.87,23-2.4,46-3.45,69.08-.27,5.81,1.24,13.06-5.3,17.31Z" transform="translate(-450.5 -147.26)"/><path class="cls-93" d="M719.61,499.84c1.76-9.29,4.16-18.48,4-28-.13-11.51,1.25-23,1.79-34.39s.51-22.91,1-34.34c.88-20,2.51-40,3.61-60.05.42-7.66.24-15.35.33-23,0-2.93-.24-5.9,1.35-8.58,1.78,24.71.07,49.45-.28,74.15-.42,30.1-3.39,60.15-4.17,90.25-.21,8.35-3,17,.39,25.35l-2.71,0A9.36,9.36,0,0,0,719.61,499.84Z" transform="translate(-450.5 -147.26)"/><path class="cls-59" d="M969.07,276.09l.06-5.4c10.77.37,15.6,3.79,17.92,13.56,3.71,15.68,7.16,31.42,8.91,47.47-2.92,1.58-3.7-.85-5-2.56-4.23-5.38-7.58-11.49-12.91-16-.07-11.22-1.74-22.13-6.13-32.52C971.17,279,971,277,969.07,276.09Z" transform="translate(-450.5 -147.26)"/><path class="cls-65" d="M979.78,312.74c6.23,2.39,7.92,8.65,11.39,13.41,1.44,2,3.18,3.72,4.78,5.57,3.87,6.3,5.71,13.43,8.11,20.32l-1.64,1.45c-5.67.66-5.1-4.67-7.14-7.51-3.08-7.88-7.8-14.89-11.77-22.3-1.41-2.63-4-3.93-6.15-5.74-3.67-3.07-9.5-4.9-8.28-11.61C975.05,304.19,975.65,304.55,979.78,312.74Z" transform="translate(-450.5 -147.26)"/><path class="cls-85" d="M979.78,312.74c-3.39-2.38-6.39-5.59-11-5.23a1.6,1.6,0,0,1-1.94-.82c-.41-3-1.52-6.15,1-8.83,2.39-7.14.6-14.52,1.25-21.77,1.59-.51,3.44-.74,4.09,1,3.51,9.57,10.88,18.21,7.05,29.61C979.59,308.58,979.9,310.73,979.78,312.74Z" transform="translate(-450.5 -147.26)"/><path class="cls-94" d="M967.82,297.86l-.13,9.42c.62.63.52,1.12-.28,1.48-1.87,3.23-.43,7.05-2.13,11.78V278.77c1,4.36,1.58,6.9,2.16,9.45C967.57,291.43,967.69,294.65,967.82,297.86Z" transform="translate(-450.5 -147.26)"/><path class="cls-92" d="M893.27,215c.12-.34.23-.68.33-1l42.93-.54,12.24.32c3.09,2.34,3.29,5.77,3.24,9.18-.21,16.69.61,33.37-.86,50.08-1.24,14.16-.24,28.44-.39,42.66,0,4.06.18,8.15-1,12.09-.17.78-.35,1.58-.51,2.36-.87,2.09-2.78,3.48-3.67,5.56-1.12,1.16-2.78,1.46-4,2.39-4.81,3.61-7.78,2-9.83-4-3.61,5.45-8.18,8.67-14.25,9.57-3.42.51-6.33-.46-6.51-4-.2-4-2.62-3-4.85-3.54-4.74-1-6,1.05-4.59,5.08,1.33,3.86,2.43,7.53-1.65,10.26-3.56,2.38-7.29,4.77-11.8,2.05s-9.22-5.11-9.26-11.36c0-2,.92-4-.61-5.81-1.52-.42-1.87.84-2.47,1.7-4.65,6.69-12.44,6.35-16.68-.73-.58-1-.92-2.08-1.58-3-3.54-4.84-10.62-4.43-13.16,1-1.19,2.54-2.2,5.3-4.95,6-10.08,2.64-11,11.51-10.53,18.83.81,12.93-2.78,24.35-7.42,35.87a84.7,84.7,0,0,0-5.94,28.36c-.13,3.14-1.2,6-2,9-3.46,13-6.61,26.1-9.31,39.24-1.33,6.49-2.38,13-4.41,19.37-1,3.21-2.52,5.63-6,6.34h-2.7c-3.51-5.68-1-11.61-.06-17.14q5.47-31,9.44-62.12c2.35-18.28,5.17-36.55,6.25-55,.54-9.16,3.55-18.15,1.69-27.5a7.57,7.57,0,0,1,.57-4c4.61-12.37,4.1-25.8,7.94-38.36,1.58-5.15,1.8-10.64,1.86-16.09.17-14.42-1.11-28.9,2.31-43.16.88-3.71.35-7.65-.17-11.47-.33-2.49-.49-5,1.17-7.12h89.88V215Z" transform="translate(-450.5 -147.26)"/><path class="cls-39" d="M947.37,330.35q.71-58.28,1.4-116.56l2.78-.17c4-.55,7,2.77,10.74,3a3.91,3.91,0,0,1,.32,2.36c-4.1,19.53-1.79,39.32-2.37,59-.13,4.48,0,9,0,13.46,0,13.38-.1,26.76-.09,40.13-.06,2.07-1.37,2.61-3.14,2.56C954.19,332,950.17,332.72,947.37,330.35Z" transform="translate(-450.5 -147.26)"/><path class="cls-4" d="M793.76,498.47c3.94-7,7.28-14,7.33-22.58,0-5.7,2-11.51,3.75-17.06,5.93-18.75,7.88-38.22,10.79-57.53.52-3.44,2.67-6.63,4-10,3.89-9.85,6.69-19.7,5.56-30.7-.59-5.78,1.62-11.93,3-17.8.68-2.88,3.76-2.74,6.16-3.19,4-.74,6.79-2.67,6.28-7.23-.43-3.79,1.56-4.76,4.75-4.73,2.91,0,5.83.1,8.74,0,4.2-.2,6.79,1.18,7.35,5.84.45,3.81,2.95,6.14,6.9,6,3.8-.13,4.45-3.18,4.89-6.2.37-2.59,1-5.16,4.24-5.07s4.72,2.44,5,5.39c.22,2.68-.09,5.4,0,8.1.14,6.18,7.44,11.08,12.87,8.72,3.4-1.48,5.12-3.57,3.13-7.38-1.25-2.41-2.33-4.89-1.94-7.74.69-5,3.46-6.53,7.75-4.11,1.58.89,2.76,2.41,4.52.29,2.23-2.68,5.16-3.37,7.52-.69,2.67,3.05,1,5.82-1.82,8-.26.21-.21.8-.37,1.45,6.5.61,11.45-1.27,14-7.7a12.17,12.17,0,0,1,1.25-2.4c1.47-2.13,2.38-6.14,5.28-5.23,3.4,1.08,1.67,5,1.64,7.8,0,1.32-.23,2.63-.41,4.39,3.61,0,5.29-2.7,7.66-4a3.79,3.79,0,0,1,1.57,4.09c-1.36,6.92.41,13.2,3.25,19.47,1.43,3.14,2.49,6.71,1.33,10.36a33.56,33.56,0,0,0-.23,5c.58,20.56-1,41.14.8,61.69a14.88,14.88,0,0,1-1.53,7.89c-1.51,2.72-3.7,3.48-6,1.32-6.17-5.73-13.42-10.67-15.66-19.55-.55-2.19-1.62-2.93-3.79-2.79a6.94,6.94,0,0,1-7.41-4.66,5.22,5.22,0,0,0-2.6-3c-7.44-2.93-7.52-8.59-5.69-15a10.09,10.09,0,0,1-15.07,2.76c-9.77-7.76-20.72-13.12-32.39-17.21a45.25,45.25,0,0,1-12.18-7.09c-4.9-3.71-7.29-2.82-9,3.24a57.15,57.15,0,0,1-9,18.66c-6.72,9.12-9.55,19.29-9.49,30.27,0,4-3,6.21-3.54,9.87-2,14-6.74,27.44-9.49,41.35a59.07,59.07,0,0,1-7,18.7Z" transform="translate(-450.5 -147.26)"/><path class="cls-95" d="M822.06,216.5A30,30,0,0,1,824.3,237c-3,12.53-2.11,25.12-2.18,37.7,0,9.3-2.18,18.26-3.3,27.36-1.86,15.06-7.48,29.37-6.65,45.11.65,12.32-2.58,24.86-4.16,37.3-1.08,8.47-2.57,16.9-3.38,25.4-2.74,28.9-8,57.42-12.71,86a16.75,16.75,0,0,1-.86,2.56c-4.62,0-6-2.86-5.13-6.74,6.58-29.77,4.67-60.49,10.59-90.46,4.2-21.23,3.59-43.38,7-64.82,2.67-16.84,1.17-33.78,3.55-50.53.46-3.24-.33-6.76-1-10-4-18.3,1.35-36.35,1.36-54.53,0-3.39,2.13-4.75,5.27-4.79S818.92,216.52,822.06,216.5Z" transform="translate(-450.5 -147.26)"/><path class="cls-4" d="M800.49,498.49c1.65-13.66,6.65-26.5,9.48-39.88,3.28-15.57,7.39-31,10.46-46.58a42.21,42.21,0,0,1,5.25-13c4.2-7.35,8.93-14.42,10.31-23.12.6-3.81,4-5.85,7-7.88,2.07-1.44,3.94-.23,4.88,1.9a16.9,16.9,0,0,0,11.71,9.48c10.76,2.71,19.42,9.91,29.85,13.13,1.93.59,2.49,2.46,3.64,3.8,4.56,5.28,11.35,3.95,13.6-2.61.68-2,.09-5,3.35-5a4.4,4.4,0,0,1,3.74,2.56c1.71,3-1.4,3.66-2.64,5.29-3.13,4.08-1.54,10.26,3.25,11.7,3.56,1.07,3.91,3.92,5,6.57s2.59,3.85,4.7.77c.9-1.31.58-4.33,3.19-3.34,2.28.86,2.69,3.64,2.82,5.8.69,11.41,8.6,18,16.11,24.82a3.42,3.42,0,0,1,1.23,3.73c-2.07,3.39-5.9,4.13-9.11,5.05-4.27,1.22-6.83-1.57-6.89-6-.06-4.7-.93-6.11-5.23-2.6-5,4.11-8.27,2.71-11.76-2.89-4.53-7.27-8.35-15.52-17.93-17.8-1.88-.45-2.67-2.22-3.55-3.83-3-5.52-8.62-7.19-13.81-6.34-8.6,1.41-14.05-3.16-19.21-8.3-4.69-4.69-5.14-5-8.16.86-2.33,4.57-6,4.86-10.26,3.95-9.33-2-10.32-1.42-13.05,7.43-.8,2.58-2.15,5.2-1.76,7.87,1.2,8.14-2.93,14.94-5.6,21.91-4.12,10.74-8.54,21.28-9.39,32.92-.2,2.69-1.4,5.05-2.25,7.54-1.47,4.32-3.43,8.79,3.46,10.63,1.58.42,3.13,2.58-.33,3.44-3.58-.38-7.28.87-10.76-.8Z" transform="translate(-450.5 -147.26)"/><path class="cls-19" d="M801.79,499.71l12-.06c1.44-.85,2.51-.72,2.9,1.15-12.17-.13-24.38,1.74-36.49-.81Z" transform="translate(-450.5 -147.26)"/><path class="cls-93" d="M816.69,500.8l-2.9-1.15c-11.85-3.25-11.9-3.27-6.78-15.68,2.53-6.13,1.67-12.82,3.67-19.15,3.37-10.72,7.74-21,11.44-31.58,2.26-6.44,1.09-13.62,3.44-20.36,2.91-8.33,6.12-11.06,14.2-8.24,5.84,2,8.7,1.27,9.63-5.46.81-5.92,3.16-6.52,8.29-2.84,4.8,3.45,7,10,13.51,11.49,1.26.29,3.22,1.76,3.51,1.44,5.74-6.29,11.4-.53,15.16,1.66,6.18,3.58,12.7,8,17.25,13.37,4.12,4.83,9.64,9.09,11.65,16.11,1,3.58,4.45,1.93,5.47-1.4.94-3,1.88-6.41,5.7-3.85,3.19,2.14,8.2,3.82,6.33,9.55-.44,1.34-2.6,2.55-.56,3.93,1.37.93,2.51-.44,3.27-1.57,2.38-3.52,4.78-.25,7.17-.1,3,1.43,3,4.31,3.09,7,.36,13.3.12,26.61.14,39.92,0,4.91-2.51,6.06-6.8,6-13.68-.13-27.36,0-41-.08-1.32-.13-2.85-.17-3.1-1.87a3.06,3.06,0,0,1,2-3.2c1.87-.88,3.93-.82,5.94-1,4-.29,5.91-2.64,5.11-6.33-1.51-7,.35-11,8-11.24a2.23,2.23,0,0,0,2.37-2.68c-1.78-1.49-3.37,0-5,.36-2.81.61-5.56.39-7.34-2.05-2-2.67-4.26-3.26-7.48-3.28-5.91,0-9-3.45-8.45-9.55.79-8.12-5.61-13.79-13-16.74-1.46-.58-2.41.25-3.55,1.14-5.59,4.42-10.63,4.81-17,.67-3.86-2.51-6-1.85-9.89.77a68.78,68.78,0,0,0-14.56,12.56,5,5,0,0,1-3.49,1.91c-6.51.33-9.13,5-11.34,10.1-2.69,6.27-3.08,13.11-4.54,19.67-.93,4.16,2.42,6.18,8.44,5.8,3.83-.24,7.94-1.32,8.06,4.71C827.38,500.27,822.14,501.94,816.69,500.8Z" transform="translate(-450.5 -147.26)"/><path class="cls-9" d="M832.69,499.58c-3.72-2.6-7.87-.87-11.81-1.16-8.61-.61-11-3.64-8-11.77,2.72-7.57,2.22-15.95,6.74-23.16,2.45-3.9,4.3-7.18,9.4-7.18,1.46,0,3.82-.53,4.25-1.49,3.43-7.7,13.07-8.92,16.57-16.5,1.61-3.51,4.28-2.48,6.72-.76,3.85,2.71,7.54,5.7,12.55,6,2,.1,4.53.77,4-2.61-1-6.38,3.26-4.92,6.24-4.06,11.54,3.36,17,10.9,17.59,23.2.26,5,3.16,6.29,7.34,3.83,3.2-1.87,5.71-2,6.58,2.09,1.09,5.1,3.77,5.53,7.8,3.43a3.17,3.17,0,0,1,1.92-.5c2.75.71,6.1-3.83,8.06.21,1.61,3.34-4,11.65-7.7,11.15-8.75-1.18-6.33,4.21-5.61,8.59,1.36,8.24,1.45,8.21-7,8.28-3.13,0-6.29-.26-9.32.88-.58,1.36-1.77,1.65-3.06,1.76-12-.26-24.05,2.07-36.09.05C850.72,501.82,841.7,500.78,832.69,499.58Z" transform="translate(-450.5 -147.26)"/><path class="cls-96" d="M859.76,499.82l36.14-1.12c1.77.86,3.74.15,5.55.69a1.12,1.12,0,0,1,.42,1.05c-.07.39-.16.58-.26.58q-18.78.08-37.55.13C862.53,501.15,860.88,501.28,859.76,499.82Z" transform="translate(-450.5 -147.26)"/><path class="cls-97" d="M901.61,501c0-.45,0-.89,0-1.34,11.83-1.14,23.68-.18,35.52-.54,4.4-.14,8.9.86,13.12-1.63,1.57-.94,3.5-.19,4.9,1.21a2.23,2.23,0,0,1,.38,2.48l-21.66.22Z" transform="translate(-450.5 -147.26)"/><path class="cls-24" d="M975.73,464.59a4.45,4.45,0,0,1,2.71-2.7,33.52,33.52,0,0,1,2.67,13.56c-1.62-2.11-2-5.07-4.46-6.61C973.66,468,974.82,466.27,975.73,464.59Z" transform="translate(-450.5 -147.26)"/><path class="cls-71" d="M978.43,498.49c-2.33,5.93-6.48,2.32-8.83.85-3.62-2.28-3.18.9-4.29,2.16l-.46-.4c-2.64-2.53-1.75-5.81-1.86-8.88.8-3.65.78-7.47,2.13-11,3-2.58,4.34.11,5.64,2A71.52,71.52,0,0,1,978.43,498.49Z" transform="translate(-450.5 -147.26)"/><path class="cls-98" d="M977.05,478.14c1.91,5.74,1.45,11.65,1.27,17.54-1.85.36-2.08-1-2.54-2.29a44.5,44.5,0,0,0-11-17.49,11.93,11.93,0,0,1-.13-6.33A3.69,3.69,0,0,1,966,468C972.83,467.89,973.92,474.14,977.05,478.14Z" transform="translate(-450.5 -147.26)"/><path class="cls-99" d="M966.29,475.43c8.37,4.12,8.89,13,12,20.25,0,.93.07,1.87.11,2.81-5.21-5.06-7.86-11.9-12.13-17.62C964.44,479.06,964.45,477.25,966.29,475.43Z" transform="translate(-450.5 -147.26)"/><path class="cls-100" d="M977.05,478.14c-5.28-1.2-6.25-7.36-10.75-9.47a2.53,2.53,0,0,1-.68-3.91,2.92,2.92,0,0,1,4-.85c1.52.82,2.86,2,4.72,1l1.37-.29c.58,1.36-.64,3.11.92,4.25C976.78,471.94,976.92,475,977.05,478.14Z" transform="translate(-450.5 -147.26)"/><path class="cls-101" d="M974.36,464.88c-.75,2.46-1.4,5.16-4.72,2.39-2-1.7-3.12-1.23-3.34,1.4h0c-1.89,7.73.46,15.69-1.24,23.43l-.21,9c-2.33-.05-4.79.6-6.74-1.36a6.3,6.3,0,0,1-1.35-4.38c1.33-8.67.4-17.43,1-26.14,1.56-7.92.95-15.93,1.24-23.91.09-2.54-1.22-6.21,3.4-6.52.45,1.13.91,2.26,1.37,3.38C962,451.06,963.25,460,963,469c-.19,6,0,12.12,0,18.18,0-12.78,0-25.55,0-38.33,0-2.21-.49-4.51.87-6.55C969.15,448.94,968,458.67,974.36,464.88Z" transform="translate(-450.5 -147.26)"/><path class="cls-102" d="M959.76,470.3c-.36,9.82,1.13,19.75-1.65,29.44l-2.62,1.46a4.46,4.46,0,0,0-.08-1.21,7.63,7.63,0,0,1-1.1-2.45c-1-17.52-2.06-35.07.74-52.51.4-2.48.41-6.24,4.65-6.29A202.75,202.75,0,0,1,959.76,470.3Z" transform="translate(-450.5 -147.26)"/><path class="cls-103" d="M969.14,327.27c-2-3.26-1.21-6.88-1.27-10.39.69-1.07.09-2.71,1.55-3.43,3.9-.38,5.71,2.84,7.19,5.24,6.9,11.21,14.28,22.24,17.47,35.34a11.48,11.48,0,0,1,.77,3.26c-.15,3,1.2,6.69-3.12,7.83-3.79,1-5.84-1.41-7.17-4.54a13.66,13.66,0,0,0-3.26-5c-4.64-7.46-9.15-15-9.6-24.12C971.61,329.46,971.2,327.9,969.14,327.27Z" transform="translate(-450.5 -147.26)"/><path class="cls-104" d="M959.62,333c-3.1-13.87-.8-27.93-1.42-41.89,1.57-2.89,1.41-6.06,1.34-9.19-.4-17-1-34,.48-50.92.38-4.36-1.21-9.39,2.09-13.39q.07-.45.18-.9a2.62,2.62,0,0,1,2.42,2.6c-1,8.65-.16,17.33-.44,26-.09,2.43.38,4.91-.61,7.26.91,5.64.28,11.27-.21,16.89-1.16,12-.19,24.1-.54,36.15-.07,2.66.46,5.38-.6,8,1.11,6.61,0,13-1.54,19.42C960.39,333.48,960,333.51,959.62,333Z" transform="translate(-450.5 -147.26)"/><path class="cls-105" d="M961,337c2,2.1,1.55,5.62,4.79,8.09.31-3.81.58-7,1-11.68,1.47,6.71,2.62,12,3.78,17.33-1.17,3.77,2.06,5.61,3.68,8.06,2.89,4.38,2.9,10.07,6.57,14,.19,3.41,3.77,5.41,3.67,8.94-.13,2.87,0,5.61,1.41,8.31,1.14,2.15,1.44,4.65-.34,6.85-1.94,2.6-4.28,3.06-7,1.34-2.92-2.15-1.87-5.34-2.12-8.19.62-5.12-.39-9.74-4.06-13.59-1.15-1.19-1.31-2.82-1.46-4.39q-7-10.69-13-22C954.92,344.5,956.1,339.18,961,337Z" transform="translate(-450.5 -147.26)"/><path class="cls-52" d="M969.11,314.25c-.41.88-.83,1.75-1.24,2.63q-.23-4-.46-8.12c.09-.49.19-1,.28-1.48.34.09.69.16,1,.23a38.07,38.07,0,0,0,4.54,3.92c12.61,8,18.62,20.66,23.93,33.84-.94,3.28,1.35,5.67,2.45,8.31.91,2.19,1.53,4-.27,5.92a4.09,4.09,0,0,1-1.82.66c-4.44-2.57-5.22-7.31-6.09-11.63-.5-2.45-.83-5-2.24-6.86-5.12-6.75-7.67-15-12.67-21.78C974.58,317.2,973,314.26,969.11,314.25Z" transform="translate(-450.5 -147.26)"/><path class="cls-106" d="M961,337c-1.51,4.78-1.18,8.66,1,13.89,3,7.25,7.89,13.16,11,20.16a2.34,2.34,0,0,1-1.83.71c-10-5.3-13.82-14.94-17.35-24.8.69-4.11-.66-7.71-2.43-11.34-.79-1.61-1.88-4.07.41-5.44,2-1.17,3.9-.59,5,1.69l2.83,1.08a2.36,2.36,0,0,0,1.15,0Z" transform="translate(-450.5 -147.26)"/><path class="cls-94" d="M978.38,373.88c-3-5.14-6.08-10.25-9-15.44-1.57-2.79-1.64-5.52,1.2-7.7,2.45,2.35,4,1.48,5.13-1.37.94-.25,2-.13,2.33.75,1.87,5.28,4.2,10.53,4.58,16.12C982.8,369.08,983,373.19,978.38,373.88Z" transform="translate(-450.5 -147.26)"/><path class="cls-107" d="M978.38,373.88c2.49-4.22,2.86-8.67.39-12.86-2.17-3.68-.81-8.11-3.07-11.65a5.66,5.66,0,0,1-2.41-5.64c4.53.37,5.72,4.16,6.92,7.46a67.29,67.29,0,0,0,6.9,13.75c1.57,4.93-2.12,10.57,2,15.16,1.45,2.27,1.37,4.38-.57,6.33-4.53,1.7-5.43-1.31-6-4.7Z" transform="translate(-450.5 -147.26)"/><path class="cls-108" d="M985.1,365.63c-3.4-3-4.66-7.08-5.35-11.35-.71-4.46-2.63-8.08-6.47-10.55-3.32-5-1.94-11.18-4.14-16.46,1.75-.67,4.31-1.3,4.11,1.3-.78,9.84,5.79,16.75,9.15,24.93,3.19,2.74,2.66,7.19,4.7,10.5C987.59,364.79,986.51,366,985.1,365.63Z" transform="translate(-450.5 -147.26)"/><path class="cls-102" d="M962.31,313.52q0-18.12,0-36.24c0-2.68-.13-5.38,1.19-7.87C963.24,284.12,964.22,298.86,962.31,313.52Z" transform="translate(-450.5 -147.26)"/><path class="cls-102" d="M963.66,252.52c.45-11.08-1.3-22.24,1.05-33.26C964.68,230.36,965.43,241.48,963.66,252.52Z" transform="translate(-450.5 -147.26)"/><path class="cls-75" d="M1000,451.05a46.85,46.85,0,0,0-16.15-10.87c-2-2.4-4.05-4.74-5.92-7.22-4.16-5.5-5-12-3.83-18.39.71-3.86.43-7.33-1.18-10.35-3.74-7,2.75-13,1.41-19.57l.94-.31c2.33.94,2.2,3.11,2.49,5.08a10.57,10.57,0,0,0,0,2q3,15.39,5.73,30.81c1.2,6.66,7.65,11.33,12.59,16.21C999.6,442,1002.09,445.79,1000,451.05Z" transform="translate(-450.5 -147.26)"/><path class="cls-109" d="M956.79,331.87c-2.23-1.24-4.78-2.57-3.06,2,1.59,4.19,3.49,8.22,1.82,12.83,2.49,7.21,3,15.43,10.37,20.13a1.92,1.92,0,0,1,.37,2.91,19.1,19.1,0,0,0,1.47,8.47c2.84,6.18,3.18,12.46-.13,18.65a2.77,2.77,0,0,1-1.69.74c-4.38-1.85-5.57-5-3.17-9.06,1.69-2.85,1.89-5.34-.09-8-1.32-1.75-1.08-3.83-1.17-5.82-.07-1.6-.12-3.25-1.47-4.28-8.73-6.69-12.65-16.09-15.76-26.31-1.74-5.69,3.31-8.95,3.07-13.77h0C950.75,329.36,954.29,327.36,956.79,331.87Z" transform="translate(-450.5 -147.26)"/><path class="cls-110" d="M959.76,470.3q-.21-15.41-.43-30.81a18.11,18.11,0,0,1-4.35-5.72c.2-2.38-1-4.68-.61-7.1.36-1.56,2-2.23,2.5-3.79,2.36-7,2.41-7,9.64-4.87,1,1.91-.27,4.75,2.47,5.91.12,3.75-2.57,6.93-1.27,11.19.84,2.75-3,3.2-5.35,3.68-2.76,1.67-1.52,4.43-1.64,6.7C960.32,453.75,961.1,462.07,959.76,470.3Z" transform="translate(-450.5 -147.26)"/><path class="cls-111" d="M966.29,418.5c-3.7.83-7.22,1.56-6.89,6.84.19,3.17-2.18,1.65-3.72,1.24-3.11-.88-3.29-3.31-3.39-6-.12-3.37,0-6.79-1.24-10a4.5,4.5,0,0,1,3.67-4.86c5.8-.68,9.19-4,11.57-8.9h1.34c0,.45,0,.9,0,1.34C969.13,405.07,966.87,411.73,966.29,418.5Z" transform="translate(-450.5 -147.26)"/><path class="cls-75" d="M966.29,369.7c-5.34-5.49-9.7-11.53-11.45-19.21-.36-1.55-1.5-2.9.71-3.83,2.3,2.49,4.13,5.08,4.23,8.77.12,4.79,4.05,7.15,7,10.1,1.73,1.71,3.21,3.69,4.8,5.55,1.24,2.93,1.31,6.28,3.45,8.92,1.23,1.52,1,3.22-.59,4.56l-.15.09C969.09,381.05,970.81,373.68,966.29,369.7Z" transform="translate(-450.5 -147.26)"/><path class="cls-109" d="M966.29,418.5c-2.08-6.95,1.72-13.51,1.35-20.34,3.52,6.28-.17,12.88.77,19.32.3,2.07-.4,4.34.57,6.44C966.64,422.83,966.33,420.73,966.29,418.5Z" transform="translate(-450.5 -147.26)"/><path class="cls-112" d="M1000,451.05c-1.64-6.07-5.1-10.11-10.33-14.09-4.64-3.51-8.81-10.49-9.21-16.21-.73-10.75-4.67-21.14-3.41-32,.44-.81.89-.82,1.35,0,.12,2.76-.33,5.62,1.37,8.11a62.4,62.4,0,0,1,6.26,9.72c.44,11.73,5.33,21.38,13.45,29.64,2.08,2.11,2.56,5.16,2.6,8.15-.47,2.24,2,4.8-.75,6.79Z" transform="translate(-450.5 -147.26)"/><path class="cls-76" d="M1001.32,451.12l-1.32-6.88c2-2.18,4-1.63,5.58.41,6.53,8.21,10.92,17.55,14.28,27.45.63,1.86.76,3.46-1,4.73-3.26-3.43-2.49-8.65-5.38-12.23C1011.38,458.31,1003.41,457.39,1001.32,451.12Z" transform="translate(-450.5 -147.26)"/><path class="cls-113" d="M998.64,358.86c-1-3.34-2-6.7-3-10-.56-1.75-1.58-3.57,1.6-3.57,1.88,2.65,2.27,6.26,5.22,8.22,9,17.16,5.1,36,7.07,54.12-2.34,1.61-2.55,0-2.75-1.78a37.93,37.93,0,0,0-1-5.94,20.68,20.68,0,0,0-2.11-3.88c-8.34,9-6,18.86-3.56,28.6,2.26,9.16,11,15.27,12,25.08-2.58,2-4.4.18-5.37-1.73-4.16-8.16-10.06-15.08-15.45-22.38-2.7-9.52-1.66-18.32,4.79-26.16.86-1,.8-2.55,1.15-3.84a26.89,26.89,0,0,0,.44-3.1c2.33-10,1.74-20-.23-30A3.91,3.91,0,0,1,998.64,358.86Z" transform="translate(-450.5 -147.26)"/><path class="cls-114" d="M534.94,468.68c0-.46,0-.93,0-1.4-.21-4.95.13-9.51,6.07-11.22a4.67,4.67,0,0,0,2.75-2.65c3.38-11.06,9.62-21.38,8.72-33.55-.33-2.16-.63-4.28,2.64-4.09.19,1.32.75,2.72.51,4-1.23,6.34-.28,10.43,7.57,8.23-4.1,6.57-4.87,14.59-9.53,21.05-2.64,3.65-4.93,7.19-9.31,8.78C538.79,459.31,538.78,465.67,534.94,468.68Z" transform="translate(-450.5 -147.26)"/><path class="cls-70" d="M571.36,430.73l-.09-12.24c-1.53-11-6.19-22.16,2-32.56a2.88,2.88,0,0,1,2.45-.37c2.25,1.39,2.16,3.57,2.23,5.88.4,13.66.43,27.34-.2,41-.32,6.76-4,12.94-5.35,19.61a6.84,6.84,0,0,1-1.56,1.83,2,2,0,0,1-2.2-.12L570,443C571.08,439,567.12,434.38,571.36,430.73Z" transform="translate(-450.5 -147.26)"/><path class="cls-115" d="M574.12,386c-3.75,10.59-2.75,21.59-2.85,32.5-1.92-1.36-1.65-3.3-1.8-5.37-.35-5.07-4.33-6.41-11.44-4.15-.16-.28-.33-.55-.5-.83a10.7,10.7,0,0,1,1-2.77,82.82,82.82,0,0,0,3.86-14.86c.39-2.13.09-4.61,2.85-5.5C568.16,385.43,571.28,384.42,574.12,386Z" transform="translate(-450.5 -147.26)"/><path class="cls-59" d="M555.1,415.77l-2.64,4.09c-3,5.85-5.1,12.24-10.77,16.28,0-2.62,1.41-4.62,2.9-6.63a12.4,12.4,0,0,0,2.61-9.09c-.43-6.27,3.34-11.29,9.25-14.15,1.24.53.7,1.87,1.22,2.72l.36,0C557.06,411.24,556.08,413.5,555.1,415.77Z" transform="translate(-450.5 -147.26)"/><path class="cls-116" d="M544.34,457.79c5.86-5.88,10.86-12.13,12.82-20.63.79-3.43,2.24-7.32,6-9.2-.57,9.6-6.09,17.13-10.31,25.22-1.88,3.59-5.72,3.94-8.51,6Z" transform="translate(-450.5 -147.26)"/><path class="cls-117" d="M548.27,486l-2.53,1.63c-.26-7.89-.46-15.76,7.69-20.46C552.16,473.61,551,480,548.27,486Z" transform="translate(-450.5 -147.26)"/><path class="cls-118" d="M571.36,430.73c-.22,4.1.65,8.32-1.33,12.22-4.33-.23-2.12,5.11-5.11,5.91C563.54,441.88,566.82,432.54,571.36,430.73Z" transform="translate(-450.5 -147.26)"/><path class="cls-110" d="M568.59,453.73l1.48.11c2.32,2,1,4.12.18,6.22-3.65,6-6.84,12.16-6.48,19.53.11,2.11-.26,4-3.08,3.92l-.26.18C559.71,472.76,560.88,462.34,568.59,453.73Z" transform="translate(-450.5 -147.26)"/><path class="cls-34" d="M518.75,478.15c3.89-1.1,4.51-4.33,5.42-7.71,2.57-9.55,5.9-18.8,12.12-26.69,1.52-1.92,2.89-4,5.36-4.93-.35,4.17-2.68,7.15-4.92,10.59-3.39,5.21-4.94,11.63-7.24,17.55-.81,2.08-1,4.59-2.37,6.22-6.15,7.54-11.3,15.74-16.45,23.95C513.33,490.79,512.12,482.78,518.75,478.15Z" transform="translate(-450.5 -147.26)"/><path class="cls-119" d="M993.26,425.27A107.62,107.62,0,0,1,1007.79,445c1.17,2,1.88,4,4.33,4.67q6.07,14.91,12.13,29.82c0,2.71,0,5.42,0,8.13l-4-8.13c-.45-.9-.91-1.79-1.37-2.69-.76-12.75-7.74-22.33-15.86-31.31-.66-.72-2-.86-3-1.27-1.67-6.51-5.25-11.71-10.17-16.29-5.78-5.38-5-13.47-7.37-20.29,5.15-.85,5.54,3.45,7.09,6.57C991.3,417.74,991.56,421.75,993.26,425.27Z" transform="translate(-450.5 -147.26)"/><path class="cls-33" d="M560.69,483.51c1.95-5.92.86-12.53,4.11-18.19,1.21-2.11,1.71-4.64,3.8-6.21,1.6.59,2.1,2.12,2.9,3.4a3.14,3.14,0,0,1,.11,2.62c-6.93,10.41-4,22.09-4.31,33.34.45.83.91,1.66,1.37,2.49C560.28,501.27,557,494,560.69,483.51Z" transform="translate(-450.5 -147.26)"/><path class="cls-2" d="M567.3,498.47c-3.29-4.79-1.64-10.23-1.8-15.36-.22-6.75,1.58-13.32,3.13-19.87,2.68-5.7,6.39-10.67,10.17-15.69,6.84-9.11,5.73-20.08,5.62-30.61-.16-16.65-1.45-33.32,3.92-49.55.87-2.61.15-5.72-1.38-8.3-.81-1.36-1.85-2.63-.81-4.31,6.22.7,8.29,4.74,8.05,10.4-.49,11.44-2.24,22.82-.16,34.34.72,4,2.05,7.85,2.53,11.82,2,16.45-1.72,31.77-9.83,46.07-3.11,5.49-9.26,7.63-13.57,11.89-3.22,3.17-4.34,6.33-4.65,10.62C568.08,486.1,570.45,492.49,567.3,498.47Z" transform="translate(-450.5 -147.26)"/><path class="cls-22" d="M586.15,354.78c4.55,5.42,5.44,10.92,3.15,18.09-4.27,13.34-2.53,27.45-1.31,41,1.82,20.23-3,36.81-19.36,49.37l0-4.13,1.47-5.27,0,0c5.15-10,8.47-20.24,8.17-31.8-.45-17.48-1-35,3.79-52.21,1.45-5.16-.17-9.86-6.12-11.68-1.81-1.12-2.82-2.54-1.78-4.74C578.15,353.48,582.28,353,586.15,354.78Z" transform="translate(-450.5 -147.26)"/><path class="cls-120" d="M552.59,380.58c.34-4.22.83-8.4,2.52-12.34,2.09-1.26,2.45-3.42,2.73-5.56.37-2.76,1.95-3.65,4.49-3.28,4.6-.7,1.95-5.14,3.71-7.28,2.3,0,4.65-.28,6.72,1.13,1.61,6.51-1.45,12-3.73,17.68a13.59,13.59,0,0,1-2.76,1.29c-2.82,1.3-6.19,2.16-5.29,6.51,1.27,3.42,1.22,6.27-3.12,7.23h-.09C553,387.16,552.9,383.75,552.59,380.58Z" transform="translate(-450.5 -147.26)"/><path class="cls-83" d="M567.29,369.75q2.75-8.25,5.47-16.5l1.33.14c.87.93,1.73,1.87,2.6,2.81a4.69,4.69,0,0,1,1.13,2.73c-2.35,4.69-2.87,10-4.76,14.82-.76,1.94-1.2,3.87-3.3,4.77-1.4.37-2.79.81-4.19,0C563,375,563.28,372,567.29,369.75Z" transform="translate(-450.5 -147.26)"/><path class="cls-22" d="M566,352.12c4.21,4.56,1.19,9.14-1,12.78-2,3.39-3.88.94-4.49-1.95.41-3.19-.31-6.53,1.29-9.55Z" transform="translate(-450.5 -147.26)"/><path class="cls-121" d="M561.88,353.4c1.14,3.4,0,6.49-1.29,9.55-2.69,1.51-1.53,5-3.32,6.81-2.75,2.78-1.51-.88-2.16-1.52.07-1.19.15-2.39.22-3.58,1.91-2.51,1.94-5.55,2.37-8.48Z" transform="translate(-450.5 -147.26)"/><path class="cls-122" d="M532.35,388.57c-2.08-.84-4.12-1.75-5.32-3.83,7.19.11,10.21-2.57,10.54-9.36l2.7,0a36,36,0,0,1,6.73,5.33c2.09,2,2.1,4.31.63,6.65s-3.65,3-5.75,1.69C538.66,387.12,535.56,388,532.35,388.57Z" transform="translate(-450.5 -147.26)"/><path class="cls-123" d="M546.47,365.62c.28.73.57,1.46.86,2.19-3,3.63-8.05,3.36-11.36,6.32C536.93,368.13,541.76,367,546.47,365.62Z" transform="translate(-450.5 -147.26)"/><path class="cls-124" d="M548.31,359l0,2.52C546.78,360.67,547.11,359.82,548.31,359Z" transform="translate(-450.5 -147.26)"/><path class="cls-125" d="M532.35,388.57c2.6-3.74,5.68-5.63,10.09-2.78,1.51,1,3.06,1,4.09-.64.91-1.48-.31-2.48-1.17-3.52-1.71-2.06-3.39-4.15-5.09-6.23,4,.12,6.43,2.91,9.17,5.2l.36,5.73c3.31,3.94,2.07,6.45-2.46,7.93-5,1.32-7.84-4.19-12.48-4.1Z" transform="translate(-450.5 -147.26)"/><path class="cls-126" d="M547.34,394.26c1.3-2.49,2.94-4.88,2.46-7.93l2.79-5.75q2.6,2.69,5.18,5.38c-3.09,7.59-3.14,16.81-11.39,21.66-.92.54-1.76,1.22-2.87,2-1.84-2.57.8-5-.38-7.16Z" transform="translate(-450.5 -147.26)"/><path class="cls-45" d="M567.29,369.75l-1.38,8.07c-2.75,9.82-3.09,20.19-6.8,29.79L557.68,409c-.41-.9-.82-1.81-1.22-2.72-.09-6.81,4.06-13.32,1.4-20.31,2.47-2.87.28-4.77-1.4-6.78,2.84-3.05,6.76-5.15,8.16-9.46Z" transform="translate(-450.5 -147.26)"/><path class="cls-127" d="M536.35,409.09c-1.91-.79-5.06-.79-3.37-4.23,1.9-3.85,4.78-3.31,7.75-1.21Z" transform="translate(-450.5 -147.26)"/><path class="cls-128" d="M756,448.29v14.94c-5-1.46-5.89-4.22-4-12.2,1-7.68-3.3-15.36,0-23C754.6,434.49,752.39,442,756,448.29Z" transform="translate(-450.5 -147.26)"/><path class="cls-10" d="M752,451c1.68,4,.19,9,4,12.2v19c-2.23.52-3.7-.66-3.77-2.64-.32-9.52-2.57-18.94-1.61-28.53H752Z" transform="translate(-450.5 -147.26)"/><path class="cls-88" d="M750.61,451q1.27,12.32,2.55,24.64c.25,2.49.64,4.9,2.83,6.53-.29,3.75.75,7.63-1.93,11.33C749.42,479.72,749.86,465.39,750.61,451Z" transform="translate(-450.5 -147.26)"/><path class="cls-28" d="M966.29,396.81c-.64,9.59-2.19,11-13.32,12.16-5.09-6.73-5-12.13.38-18.46,4.31,1.12,5-1.62,4.68-4.84-.44-3.77,3.15-9.54-4.5-10.12a4.3,4.3,0,0,1-2.25-1.58c-2.13-1.83-.82-5.66-4-6.9-1.68-11.26-7.79-22-3.76-33.93l3.81-2.8c1.44,4.39,2.38,9,5.56,13.09-4.32,1.26-4.17-3.08-7.18-3.5,1.87,5.33,1.3,11.19,7.23,14.32,1.94,1,2.35,3.73,2.86,5.95.65,2.89,2.35,4.93,4.24,7.26a24.94,24.94,0,0,1,5.2,20.59C964.62,391.41,964.15,394.08,966.29,396.81Z" transform="translate(-450.5 -147.26)"/><path class="cls-102" d="M962.11,217.56c.4,14.51-2.35,28.85-2.33,43.32,0,6.91,1.52,13.78,1.15,20.75-.18,3.4-.23,6.75-2.73,9.43.23-22.84-.57-45.7.73-68.54C959.08,219.91,959.4,218.16,962.11,217.56Z" transform="translate(-450.5 -147.26)"/><path class="cls-26" d="M956.91,433.44c2.08,1.5,2.56,3.65,2.42,6.05-3.41,10.66-2,21.67-2.49,32.55-.41,9.32,1.52,18.77-1.43,27.95l-53.84-.31-5.67-1,3-.69c13.62.19,27.25.25,40.87.66,4.92.15,6.61-1.41,6.49-6.54-.33-15.05-.13-30.11-.13-45.16,0-1.35,0-2.71,0-4.07,2.4-23.92.4-47.93,1.34-71.88,1.59-.71,2.66,0,3.57,1.26,1.55,7.63,4.16,15.11.25,23-1.93,3.89-.14,8.45.22,12.67.65,7.75,0,15.71,3.33,23.11A3.86,3.86,0,0,0,956.91,433.44Z" transform="translate(-450.5 -147.26)"/><path class="cls-92" d="M930.13,354.89c-.29,2.56-.48,5.46-1,8.3a2.87,2.87,0,0,1-2.82,2.45c-1.59,0-2.32-1.28-2.59-2.63-1.19-6.1,1-12,1.4-17.94a1.7,1.7,0,0,1,2-1.38,2.43,2.43,0,0,1,2.23,2.17C929.72,348.73,929.86,351.63,930.13,354.89Z" transform="translate(-450.5 -147.26)"/><path class="cls-129" d="M950,372.45,947.49,371c-.06-1.32-.12-2.63-.19-3.95,5.45-1.9,3.7,3.49,5.39,5.39a1.84,1.84,0,0,1-1.32.76A2.4,2.4,0,0,1,950,372.45Z" transform="translate(-450.5 -147.26)"/><path class="cls-100" d="M965.06,492.09c.39-7.81-1.44-15.74,1.24-23.43,0,2.26,0,4.51,0,6.77,0,1.81,0,3.63,0,5.44C966,484.62,966.52,488.46,965.06,492.09Z" transform="translate(-450.5 -147.26)"/><path class="cls-130" d="M963.81,442.27v54.09l-1.54.09v-9.14q0-18.62,0-37.22a17.72,17.72,0,0,1,1.46-7.91Z" transform="translate(-450.5 -147.26)"/><path class="cls-116" d="M985.1,365.63c1-4.49-3-7.82-2.7-12.13,3.68.69,3.74,4,4.75,6.63.6,1.57,1.86,2.68,3.66,2.21s.91-2.18,1.11-3.39c.77-4.66-1.06-9.18-2.79-12.9-4.44-9.62-10.14-18.67-15.55-27.82-1-1.64-3-2.67-4.47-4,4.58-1.78,6.52,1.68,8.4,4.6,7.23,11.25,14,22.74,17.75,35.77a29.32,29.32,0,0,0,2,4.25,123.86,123.86,0,0,1,2,33.39,2.48,2.48,0,0,1-2.51,1.54c-2.7-.44-2.21-2.83-2.93-4.61-1.47-3.62-2.32-7.95-7.3-8.64A14.79,14.79,0,0,1,985.1,365.63Z" transform="translate(-450.5 -147.26)"/><path class="cls-131" d="M993.26,425.27l-10.8-17.61a24,24,0,0,1-2.7-10.84,3.06,3.06,0,0,0,4.06-1.37c5.39,2.26,10.76-2.52,16.14,0-1.08,2.43-2.1,4.89-3.25,7.28C993.26,409.88,991.32,417.27,993.26,425.27Z" transform="translate(-450.5 -147.26)"/><path class="cls-122" d="M1000,395.43c-1.79.77-3.67,1-5.08,2.89-4.28,5.86-6.42,5.63-9.7-.54-.42-.8-.9-1.56-1.36-2.33,0-4.61-3.6-8.89-1.29-13.72,1.57,1.78,2.67,4.16,5.51,4.31,5.85-1.6,5.69,4,7.92,6.71h2.67c.46-.93.91-.92,1.35,0Z" transform="translate(-450.5 -147.26)"/><path class="cls-131" d="M978.39,388.71H977l-2.58-4.16c-.9-4.5-3.5-8.64-2.85-13.48l1.39,0C974.11,377.15,980.73,381.55,978.39,388.71Z" transform="translate(-450.5 -147.26)"/><path class="cls-131" d="M1000,392.76l-1.35,0c-.46-11.29-3.55-22.47-1.37-33.87h1.38C1001.88,370.05,1002.8,381.33,1000,392.76Z" transform="translate(-450.5 -147.26)"/><path class="cls-132" d="M996,392.75c-3.38-1.37-5.67-4-7.92-6.71-.52-1.83-1-3.66-1.55-5.49,5.15-4.22,7.08-.19,9,3.61A11.65,11.65,0,0,1,996,392.75Z" transform="translate(-450.5 -147.26)"/><path class="cls-132" d="M950,372.45l1.42-.05c3.33,4.94,7.84,9.43,6,16.29a3.52,3.52,0,0,1-2,2.61c-6.18,5.13-3,11.59-2.47,17.67q1.35,8.8,2.71,17.61l1.23,6.86c-.4,1.61.44,3.7-2.45,5-2-7-4.1-13.64-4.37-20.87C949.54,402.55,951.86,387.5,950,372.45Z" transform="translate(-450.5 -147.26)"/><path class="cls-110" d="M576.68,358.92c0-.91,0-1.81,0-2.72,9.38,2.06,11.64,4.42,8.9,13.29-5.86,18.94-4.9,38.28-4.81,57.6A36.23,36.23,0,0,1,570,453.82c6.71-22.22,5.26-45.09,5.35-67.84a5.15,5.15,0,0,1-1.79-5.34C575.12,373.47,575,366.07,576.68,358.92Z" transform="translate(-450.5 -147.26)"/><path class="cls-133" d="M576.68,358.92c3.79,9.23,1.21,18.14-1.3,27.06h-1.26l-1.65,2c-1.45,1.74-1.75,5.51-4.54,4.8-3.16-.82-1.59-4.45-2-6.87-3.23-1.41-4.46-3-.73-5.46a16.54,16.54,0,0,0,3.54-4A39.43,39.43,0,0,1,576.68,358.92Z" transform="translate(-450.5 -147.26)"/><path class="cls-134" d="M568.7,376.5c.59,3.61-6.15,5-2.81,9.44-1.15,5.14-2.29,10.28-3.46,15.42-.54,2.38-1.07,4.78-3.32,6.25-.08-8,3.61-15.58,3-23.72-.18-2.59,2.06-4.31,3.75-6.07Z" transform="translate(-450.5 -147.26)"/><path class="cls-26" d="M564.62,369.72c.07,5.59-2,9.34-8.16,9.46C557.1,374.21,561.28,372.34,564.62,369.72Z" transform="translate(-450.5 -147.26)"/><path class="cls-135" d="M955.44,391.3l-.06-2.81c-.09-4.91-2.41-9.64-1.25-14.66,5.06-2.05,7.65,0,7.55,6.18-.12,6.49-3.23,12.89-1.2,19.87Z" transform="translate(-450.5 -147.26)"/><path class="cls-48" d="M954.13,373.83a47.28,47.28,0,0,1,1.25,14.66q-2-8-3.94-16.09l1.26.05Z" transform="translate(-450.5 -147.26)"/></svg>