<svg id="Layer_1" data-name="Layer 1" xmlns="http://www.w3.org/2000/svg" viewBox="0 0 286.52 167.18"><defs><style>.cls-1{fill:#e22721;}</style></defs><title>edit-sign-up</title><path d="M755.16,399.09c-3.53.28-7.07.43-10.57.89-3.78.49-5.59-1-5.86-4.78-.64-9.1-1.4-18.19-2.09-27.28-.39-5.34-3.14-7-10.33-6.52-5.56.4-3.32,4.25-3.16,7.06.51,8.92,1.18,17.83,1.7,26.74.1,1.77.58,4.37-1.88,4.59-2.76.24-2.86-2.54-3-4.49-.58-8-1-16-1.45-24-.53-8.95-1.55-9.7-10.44-9-3.31.24-4.73,1.46-4.49,4.8.6,8.17,1.07,16.35,1.63,24.52.08,1.3.41,2.58.45,3.88.05,1.68.12,3.71-2.12,3.91s-2.6-1.78-2.75-3.47c-.75-9.09-1.59-18.18-2.14-27.28-.67-11.14-.53-10.74,10.19-11.46,14.66-1,29.37.31,44-1.46,2.53-.31,5.19.24,7.78.49,1.69.16,3.73.49,3.71,2.58,0,2.69-2.42,2.52-4.2,2.3a78.92,78.92,0,0,0-13.92,0c-3.68.19-4.68,1.8-4.66,5.27.05,9,.05,9.16,8.83,9.7,1.48.1,3.21-.1,3.42,2s-1.49,2.3-2.93,2.66c-.9.22-1.84.3-2.75.47-1.92.35-4.62-.38-5.13,2.29a15.3,15.3,0,0,0,1.28,10.34c.81,1.48,2.74.63,4.18.61,4.84-.05,9.69-.62,14.48.49,1.43.33,3.13.75,2.93,2.73s-2,1.87-3.44,1.88h-7.26Z" transform="translate(-539.74 -290.7)"/><path d="M628,366.48c-2.21,3.1-2.81,6.38-4,9.47-2.59,7-5.43,13.86-8.24,20.76-.72,1.76-1.78,3.43-4,3.43s-2.61-1.83-3.33-3.32c-5.59-11.41-8.64-23.8-13.71-35.41-.59-1.37-1-3.1.8-3.9,2.09-.93,3.09.77,3.8,2.28a126.58,126.58,0,0,1,5.91,15.07c1.8,5.63,4.11,11.11,6.48,17.39,5.35-8.82,6.85-18.14,10.6-26.55,1.44-3.25,1.65-8.69,5.74-8.63s4.24,5.51,5.66,8.78c3.54,8.16,5.16,17.09,10.07,25.51,3.34-5,5-10.24,6.64-15.44a112.33,112.33,0,0,1,6.23-16.14c.79-1.6,1.6-3.85,4-2.71,2,1,1.18,2.81.57,4.41-4.2,10.95-8.34,21.92-12.62,32.84-.93,2.35-1.64,5.46-4.72,5.7-3.49.27-3.66-3.24-4.62-5.45-3.12-7.17-6.33-14.31-8.29-21.93A12.22,12.22,0,0,0,628,366.48Z" transform="translate(-539.74 -290.7)"/><path d="M627.63,303c.6,8.33,1.24,16.65,1.78,25,.15,2.44,1.77,6.18-1.56,6.74-3.9.67-2.93-3.46-3.13-5.75-.9-10.57-1.59-21.15-2.41-31.72-.14-1.86-.77-4,1.44-4.89,2.41-1,4.48.19,5.8,2.16,3.61,5.42,7.05,10.95,10.54,16.45,2,3.13,3.93,6.28,6.64,10.61,0-6.72.08-12.08,0-17.44-.06-2.78-.51-5.56-.65-8.34-.08-1.51.09-3.23,2.09-3.31s2.53,1.6,2.64,3.06c.93,12.05,1.77,24.11,2.6,36.17.1,1.53-.12,3.14-1.93,3.58-2,.49-3.15-1-4-2.41-4.1-6.64-8.09-13.35-12.14-20-2.1-3.46-4.25-6.89-6.38-10.34Z" transform="translate(-539.74 -290.7)"/><path d="M684.25,383c3.36,4.14,7.19,7.47,9.62,11.88.89,1.61,2.32,3.53.28,4.94s-3.45-.51-4.42-2.07c-2.76-4.48-6.5-8.09-10.12-11.84a7.72,7.72,0,0,0-8.17-2.18c-3.39,1.05-1.26,4.12-1.43,6.28s.22,4.44.27,6.67c0,1.36-.26,2.71-1.94,2.88s-2.31-1.08-2.48-2.42c-.67-5.14-1.43-10.29-1.79-15.47-.45-6.66-.17-13.35-1.23-20-.51-3.15.1-5.33,4.49-4.73,3.77.51,7.65-.52,11.59.18,6.41,1.14,11.25,3.78,12.89,10.52C693.23,373.44,690.92,378.34,684.25,383Zm-8.72-4.5c8-.12,11.5-2.54,11.62-8.05s-5.63-9.32-13.67-8.94c-2.51.11-5.28,0-5.28,4C668.19,377.79,668.55,378.57,675.53,378.47Z" transform="translate(-539.74 -290.7)"/><path d="M791.14,315.08a33,33,0,0,1,4.38-17.15c4.21-7.14,12.12-9.29,19.3-5.11,16.79,9.78,12.72,30.5,3,38.59-9.08,7.53-23.4,2.35-25.91-9.13A59.52,59.52,0,0,1,791.14,315.08Zm4.92-.82a58.06,58.06,0,0,0,1,7.71c2,7.48,11.94,10.9,17.39,5.49,8.4-8.33,10.36-21-.92-29.5-4.95-3.75-11.2-2.18-14.17,3.38A29,29,0,0,0,796.06,314.26Z" transform="translate(-539.74 -290.7)"/><path d="M611.46,312.7c5.5-1.88,7.42,1,7.51,6.42.07,4.08.7,8.15.77,12.23.06,2.92-.57,5.73-4.44,3-1.77-1.24-3.16-.14-4.73.22-9.49,2.14-19.08-2.41-22.25-10.51-4.88-12.49-1.91-24.61,7.46-29.67,4.54-2.45,9.33-2.22,14,0,1.53.73,3.13,1.77,2.25,3.84-.79,1.87-2.52,1.33-3.87.78-6.07-2.48-10.73-1.12-14.4,4.47-4.2,6.42-4,12.67.68,20.32,3.29,5.33,8.08,6.84,13.88,6,4.54-.67,7-3.08,6.2-8.06-.47-2.78-1.52-4.52-4.75-3.91a18.79,18.79,0,0,1-3.9.18c-1.7,0-3.64-.11-3.58-2.46,0-1.87,1.72-2.24,3.23-2.4C607.34,312.91,609.2,312.85,611.46,312.7Z" transform="translate(-539.74 -290.7)"/><path d="M556.75,296.87a14.5,14.5,0,0,0-2.59.27c-3,.92-7.4,1.3-7.22,4.89s4.55,2.79,7.33,3.06c11,1,16.64,7.46,16.48,18.41-.09,6.19-3.12,9.59-8.77,11.29-7.36,2.21-16.48-.14-20.32-5.47-1.42-2-3.22-4.48-.54-6.31s3.2,1.37,4.35,2.86c3.73,4.85,12.14,6.37,17.2,3.2,3.5-2.19,3.17-5.65,3-9-.3-4.87-3.25-7.91-7.68-9.23-3.17-.94-6.57-1.12-9.87-1.62s-6.18-2-6.76-5.62c-.54-3.42,1.08-6.2,3.88-8.11a19.58,19.58,0,0,1,16.52-2.73c1.48.37,3.16.79,2.93,2.7-.26,2.28-2.16,2.19-3.87,2C559.32,297.33,557.86,297.05,556.75,296.87Z" transform="translate(-539.74 -290.7)"/><path d="M711.61,314.07c0,2.05,0,4.1,0,6.15-.14,10.46-4.32,15.17-13.92,15.74-10.06.59-15.94-4.13-17-14.14-.91-8.31-1.41-16.67-2-25-.13-1.67-.23-3.69,2-3.92s2.57,1.72,2.85,3.4c1.16,7,1,14.09,1.35,21.16.44,9.93,4.75,14.14,13.09,13.46,5.23-.43,8.31-3.07,8.53-8.45a133.29,133.29,0,0,0-.81-24c-.28-2-1.3-5.16,1.85-5.52s2.61,2.89,3,5C711.62,303.27,711.58,308.67,711.61,314.07Z" transform="translate(-539.74 -290.7)"/><path d="M720.71,292.73c4-1.09,8.28-.67,12.5.21,7.24,1.5,11.77,6.53,11.66,12.91-.12,6.61-3.94,10.31-11.92,11.54C722.26,319,722.28,319,722.86,330c.1,1.9,1.23,4.64-1.76,5s-2.86-2.63-3-4.45c-1-11.47-1.82-23-2.62-34.44C715.2,292.32,717.36,291.68,720.71,292.73Zm7,20.4a59.21,59.21,0,0,0,7.06-1.25c4.37-1.31,6.13-5.19,4.37-9.08-1.89-4.2-12.83-7.47-16.71-5.09a3,3,0,0,0-1.39,3.29,36.61,36.61,0,0,1,.4,6.08C721.15,311.72,723.07,313.68,727.74,313.13Z" transform="translate(-539.74 -290.7)"/><path d="M779.28,291.91c3.33.27,7.41.57,11.49,1,1.68.16,3.67.4,3.48,2.69s-2.21,2.26-3.87,2.17c-2.41-.12-4.82-.41-7.21-.76-4.51-.64-5.92,1.13-5.45,5.66.94,9.06,1.48,18.17,2,27.26.11,2,1.18,5.27-2.1,5.34-2.88.07-2.65-3.14-2.8-5.25-.62-8.54-1.13-17.08-1.58-25.62-.26-5-2.34-7.6-7.71-6.62a19,19,0,0,1-4.46.14c-1.9-.12-4.7.65-4.69-2.39,0-2.36,2.5-2.41,4.32-2.53C766.63,292.57,772.58,292.28,779.28,291.91Z" transform="translate(-539.74 -290.7)"/><path d="M575,295.83c-.3-1.56-.1-3.23,1.72-3.45,2.23-.28,2.73,1.58,2.88,3.3.76,8.88,1.44,17.76,2.16,26.63.24,3,.56,5.91.77,8.87.12,1.73,0,3.62-2.23,3.77-1.93.13-2.37-1.52-2.51-3.05q-1.08-11.92-2.06-23.85C575.39,304,575.22,299.9,575,295.83Z" transform="translate(-539.74 -290.7)"/><path d="M667.48,317.89c-2.22.13-4.44.27-6.65.36-1.36.05-2.71-.13-2.94-1.81s1-2.34,2.27-2.69c4.73-1.25,9.53-1.05,14.31-.45,1.53.19,3,1.07,2.69,2.91-.24,1.56-1.65,1.81-3,1.82-2.22,0-4.44,0-6.66,0Z" transform="translate(-539.74 -290.7)"/><path class="cls-1" d="M605.58,375.21c0,11.74,2,24,8.87,33.76,1.09,1.56,3.65.12,2.59-1.52-11-16.81-15-36.28-16-56.07l-2.94.4c3.15,9.32,10.69,17.17,17.48,24a225.87,225.87,0,0,0,28.17,23.87,1.51,1.51,0,0,0,1.82-.23c5.43-4.84,6.55-10.86,5.46-17.83-1.34-8.59-4.24-16.73,3.5-23.19l-1.82.23c13.16,9.53,21.56,23.94,34.74,33.45a1.5,1.5,0,0,0,2.05-.54c5.1-11.41-.61-23.3-.59-35.07l-2.8.76c6.21,10.31,12.43,20.58,20.78,29.34a1.52,1.52,0,0,0,2.56-1.06c.34-10.6.38-21.15,3.84-31.3l-2.74.36c6,10.89,11.26,22.15,21.32,30a1.52,1.52,0,0,0,2.5-.66c3.44-8.85,1-18.83,6.13-27.13h-2.59c5.68,7.68,11.3,15.41,17.86,22.38a1.54,1.54,0,0,0,2.12,0c2.66-2.38,2.31-4,2.62-7.34.18-1.92-2.82-1.91-3,0-.22,2.3.44,3.27-1.74,5.22h2.12c-6.38-6.79-11.86-14.3-17.39-21.78a1.52,1.52,0,0,0-2.59,0c-5.29,8.63-2.88,18.72-6.43,27.85l2.51-.66c-9.87-7.68-14.94-18.71-20.85-29.37a1.52,1.52,0,0,0-2.74.35c-3.55,10.41-3.61,21.23-4,32.1l2.57-1.06c-8.18-8.58-14.24-18.64-20.31-28.74a1.52,1.52,0,0,0-2.8.76c0,11,5.75,22.93,1,33.56l2.05-.54C675.78,380,667.38,365.57,654.2,356a1.52,1.52,0,0,0-1.81.24c-5.59,4.67-6.88,10.61-5.84,17.6,1.27,8.55,4.36,16.76-3.12,23.42l1.81-.24a223.34,223.34,0,0,1-26.5-22.35C612,368,604.1,360.23,601,351c-.51-1.53-3-1.38-3,.4,1.07,20.29,5.18,40.35,16.43,57.59l2.59-1.52c-6.57-9.38-8.46-21-8.46-32.24a1.5,1.5,0,0,0-3,0Z" transform="translate(-539.74 -290.7)"/><path class="cls-1" d="M659.11,448.89a4.4,4.4,0,0,1-1,1.94,3.68,3.68,0,0,1-1.49,1.26,1.08,1.08,0,0,1-.66-.16,1.94,1.94,0,0,0-.78-.22.53.53,0,0,0-.24.06,27.19,27.19,0,0,0-3.67,1.35,35.81,35.81,0,0,0-8,4.75q-6-2-6.57-2.18c-2.49-.87-3.74-1.54-3.75-2l-1-39.26c0-.24.45-.6,1.38-1.08a4.63,4.63,0,0,1,2-.68,14.62,14.62,0,0,1,2.89.73,11.14,11.14,0,0,0,3.54.67,11.3,11.3,0,0,0,4.62-1.53c1.73-.95,2.81-1.36,3.25-1.23A14.43,14.43,0,0,1,654,414c1.93,1.5,3,2.58,3.16,3.23.09.31-.26.86-1.06,1.65a3.36,3.36,0,0,1-2,1.2,2.18,2.18,0,0,1-1-.13.61.61,0,0,0-.42-.1,40.36,40.36,0,0,0-4,1.1,18.64,18.64,0,0,0-6.43,3.2l.22,8.51a42.85,42.85,0,0,1,5.38-2.08q1-.12,4.09,2.22c2.09,1.57,3.15,2.66,3.16,3.29a2.1,2.1,0,0,1-.8,1.38,3.85,3.85,0,0,1-1.58,1c-.4,0-1.1.07-2.09.16-1.51.28-4.14,1.47-7.91,3.55l.14,5.48q1.77-1,4.81-2.34a15.39,15.39,0,0,1,3.75-1.38c.56,0,2,.71,4.27,2.16S659.18,448.47,659.11,448.89Z" transform="translate(-539.74 -290.7)"/><path class="cls-1" d="M691.5,428.47a26.85,26.85,0,0,1-3.21,12.46,49.31,49.31,0,0,1-6.78,10.31c-2.44,2.78-4.24,4.41-5.43,4.89a6,6,0,0,1-2,.37,15.08,15.08,0,0,1-6-1.31,14.43,14.43,0,0,1-4.54-2.49l-1-37.59a1.84,1.84,0,0,1,1.74-1.66,23.15,23.15,0,0,1,3,.28,14.36,14.36,0,0,0,3.52-1.18,15,15,0,0,1,5.14-1.29,11.05,11.05,0,0,1,5,1.07,34.66,34.66,0,0,1,4.19,2.72,14.42,14.42,0,0,1,5.36,6.23A24,24,0,0,1,691.5,428.47Zm-10.17-9.82a2.2,2.2,0,0,0-1-.14,16.71,16.71,0,0,0-7.52,2.6l.6,23.5q4-2.14,6.67-10.16A37.49,37.49,0,0,0,682.25,422C682.2,420,681.89,418.91,681.33,418.65Z" transform="translate(-539.74 -290.7)"/><path class="cls-1" d="M707.65,413.16a2.87,2.87,0,0,1-.25,1c-.16.42-.27.68-.3.79a20.2,20.2,0,0,0-.64,3.25l.83,32.06a1.83,1.83,0,0,0,.39,1.11,1.56,1.56,0,0,1,.38.8c.06,2.23-.39,3.44-1.34,3.64a20.17,20.17,0,0,1-4.2-.57,16.83,16.83,0,0,1-4.45-1.19c-.89-.64-1.34-1.24-1.36-1.79a.75.75,0,0,1,.23-.48,1.33,1.33,0,0,0,.21-.89l-.95-36.81a1.26,1.26,0,0,0-.22-.65,1.14,1.14,0,0,1-.23-.64c.06-.84.78-1.42,2.17-1.73a17.37,17.37,0,0,1,2.74-.07,25.16,25.16,0,0,1,4.31.46C706.74,411.82,707.63,412.39,707.65,413.16Z" transform="translate(-539.74 -290.7)"/><path class="cls-1" d="M742,418.54a3.65,3.65,0,0,1-1.33-.31,2.61,2.61,0,0,0-1.38-.2l-6.11,1.63.71,27.46a7.76,7.76,0,0,0,.93,3.26,3.65,3.65,0,0,1-.07,2,2.93,2.93,0,0,1-1.08,2.07,2.54,2.54,0,0,1-.6.06,30.58,30.58,0,0,1-5.51-.53c-2.64-.46-4.21-.92-4.7-1.4s-.57-1.44,0-2.5a4.84,4.84,0,0,0,.72-2l-.67-25.84-4.21,1a3.77,3.77,0,0,0-1,.47,1.73,1.73,0,0,1-1.16.32q-1.38-.29-3.84-3c-1.64-1.82-2.37-3.07-2.19-3.73s1.22-1.45,2.76-1.9a4.31,4.31,0,0,1,1.55-.1,5,5,0,0,0,1.49,0L737,410.1a13.39,13.39,0,0,0,1.71-.67,3.64,3.64,0,0,1,1.73-.31,3,3,0,0,1,2.3,1.09,9.22,9.22,0,0,1,.95,2.33,12.83,12.83,0,0,1,.69,3.53,3.7,3.7,0,0,1-.28,1.76C743.85,418.24,743.15,418.47,742,418.54Z" transform="translate(-539.74 -290.7)"/><path class="cls-1" d="M758.68,437.07c0,1.29-.4,2-1.07,2.17a4.09,4.09,0,0,1-.6.07,11.11,11.11,0,0,1-4.39-1.09,14.74,14.74,0,0,1-4.37-2.76c-.49-.44-.51-1.28-.07-2.51s.67-1.86.67-1.89l-.51-19.74c0-.9.56-1.55,1.74-1.92a4,4,0,0,1,1-.14,14.2,14.2,0,0,1,3.84.53,5.33,5.33,0,0,1,2.72,1.29,13.18,13.18,0,0,1,.19,2.82l.56,21.3a4.59,4.59,0,0,0,.14.91A4.69,4.69,0,0,1,758.68,437.07Zm.2,7.57a8.26,8.26,0,0,1,.07,2.56c-.12,1.81-.17,2.93-.16,3.34a16.59,16.59,0,0,1-.15,3.25,1.65,1.65,0,0,1-1.46,1.39q-.7.18-4.14-.93c-2.41-.81-3.87-1.52-4.36-2.14-.29-.37-.21-1,.25-1.88a4.25,4.25,0,0,0,.37-2,38.15,38.15,0,0,1-.12-4.38c.13-1.26.71-1.88,1.75-1.88a19,19,0,0,1,4.68,1.06Q758.63,444.07,758.88,444.64Z" transform="translate(-539.74 -290.7)"/></svg>